<?xml version="1.0" encoding="utf-8"?>
<!-- Generator: Adobe Illustrator 22.1.0, SVG Export Plug-In . SVG Version: 6.00 Build 0)  -->
<svg version="1.1" id="图层_1" xmlns="http://www.w3.org/2000/svg" xmlns:xlink="http://www.w3.org/1999/xlink" x="0px" y="0px"
	 viewBox="0 0 532.7 532.7" style="enable-background:new 0 0 532.7 532.7;" xml:space="preserve">
<style type="text/css">
	.st0{fill:#FF00DB;}
	.st1{fill:#0092FF;}
	.st2{opacity:0.498;fill:#ADD8E6;}
	.st3{fill:none;stroke:#1874CD;stroke-width:0.75;stroke-linejoin:round;stroke-miterlimit:10;}
	.st4{fill:#1874CD;}
	.st5{fill:none;stroke:#1874CD;stroke-width:8.000000e-02;stroke-linecap:round;stroke-miterlimit:10;}
	.st6{opacity:0.498;fill:#B0CFE6;}
	.st7{opacity:0.498;fill:#B3C7E7;}
	.st8{opacity:0.498;fill:#B9B6E9;}
	.st9{opacity:0.498;fill:#C695ED;}
	.st10{opacity:0.498;fill:#D66CF2;}
	.st11{opacity:0.498;fill:#FB08FE;}
	.st12{fill:none;stroke:#000000;stroke-width:0.75;stroke-linecap:round;stroke-linejoin:round;stroke-miterlimit:10;}
	.st13{fill:url(#SVGID_1_);}
	.st14{fill:#040000;}
	.st15{fill:#FFFFFF;}
</style>
<polygon class="st0" points="445.6,276.7 448.7,276.9 451.8,277 454.9,277.1 458,277.2 461.1,277.4 464.2,277.5 464.1,279.9 
	464,282.3 463.8,284.8 463.6,287.2 463.3,289.6 463.1,292 462.8,294.4 462.5,296.8 462.1,299.2 461.7,301.6 461.3,303.9 
	460.9,306.3 460.4,308.7 459.9,311.1 459.4,313.4 458.8,315.8 458.2,318.1 457.6,320.5 456.9,322.8 456.3,325.1 455.5,327.4 
	454.8,329.8 454,332 453.3,334.3 452.4,336.6 451.6,338.9 450.7,341.1 449.8,343.4 448.9,345.6 447.9,347.8 446.9,350 445.9,352.2 
	444.9,354.4 443.8,356.6 442.7,358.8 439.9,357.3 437.2,355.9 434.4,354.5 431.6,353.1 428.9,351.6 426.1,350.2 427.1,348.3 
	428.1,346.3 429,344.3 429.9,342.3 430.8,340.3 431.7,338.3 432.5,336.3 433.4,334.3 434.2,332.2 434.9,330.2 435.7,328.1 
	436.4,326.1 437.1,324 437.7,321.9 438.4,319.8 439,317.7 439.6,315.6 440.1,313.5 440.7,311.3 441.2,309.2 441.7,307.1 
	442.1,304.9 442.5,302.8 442.9,300.6 443.3,298.5 443.7,296.3 444,294.2 444.3,292 444.6,289.8 444.8,287.6 445,285.5 445.2,283.3 
	445.4,281.1 445.5,278.9 "/>
<polygon class="st0" points="425.8,350.8 428.6,352.2 431.4,353.6 434.1,355.1 436.9,356.5 439.6,357.9 442.4,359.4 441.3,361.5 
	440.1,363.6 438.9,365.7 437.7,367.8 436.5,369.9 435.2,372 433.9,374 432.6,376.1 431.3,378.1 429.9,380.1 428.5,382.1 427.1,384 
	425.7,386 424.2,387.9 422.7,389.8 421.2,391.7 419.7,393.6 418.1,395.5 416.6,397.3 415,399.1 413.3,400.9 411.7,402.7 410,404.4 
	408.3,406.2 406.6,407.9 404.9,409.6 403.2,411.3 401.4,412.9 399.6,414.5 397.8,416.1 395.9,417.7 394.1,419.3 392.2,420.8 
	390.3,422.3 388.4,423.8 386.5,421.4 384.6,418.9 382.7,416.4 380.8,414 378.9,411.5 377,409.1 378.8,407.7 380.5,406.3 
	382.2,404.9 383.8,403.5 385.5,402.1 387.1,400.7 388.8,399.2 390.4,397.7 391.9,396.2 393.5,394.6 395.1,393.1 396.6,391.5 
	398.1,389.9 399.6,388.3 401,386.7 402.5,385.1 403.9,383.4 405.3,381.7 406.7,380 408.1,378.3 409.4,376.6 410.7,374.8 412,373.1 
	413.3,371.3 414.6,369.5 415.8,367.7 417,365.9 418.2,364 419.3,362.2 420.5,360.3 421.6,358.4 422.7,356.5 423.8,354.6 
	424.8,352.7 "/>
<polygon class="st0" points="376.6,409.4 378.4,411.9 380.3,414.4 382.2,416.8 384.1,419.3 386,421.8 387.9,424.2 386,425.7 
	384,427.1 382,428.5 380.1,429.9 378.1,431.3 376,432.6 374,433.9 372,435.2 369.9,436.5 367.8,437.7 365.7,438.9 363.6,440.1 
	361.5,441.3 359.3,442.4 357.2,443.5 355,444.6 352.8,445.6 350.6,446.7 348.4,447.6 346.2,448.6 344,449.6 341.7,450.5 
	339.5,451.4 337.2,452.2 334.9,453 332.7,453.8 330.4,454.6 328.1,455.4 325.7,456.1 323.4,456.8 321.1,457.4 318.8,458 
	316.4,458.6 314.1,459.2 311.7,459.7 311,456.7 310.3,453.7 309.7,450.6 309,447.6 308.3,444.6 307.6,441.5 309.8,441 311.9,440.5 
	314,440 316.1,439.4 318.3,438.8 320.4,438.2 322.4,437.6 324.5,436.9 326.6,436.2 328.7,435.5 330.7,434.7 332.8,433.9 
	334.8,433.1 336.8,432.3 338.9,431.5 340.9,430.6 342.9,429.7 344.8,428.8 346.8,427.8 348.8,426.8 350.7,425.9 352.7,424.8 
	354.6,423.8 356.5,422.7 358.4,421.6 360.3,420.5 362.1,419.4 364,418.2 365.8,417 367.7,415.8 369.5,414.6 371.3,413.3 373,412 
	374.8,410.7 "/>
<polygon class="st0" points="307,441.7 307.7,444.7 308.4,447.7 309,450.8 309.7,453.8 310.4,456.9 311,459.9 308.7,460.4 
	306.3,460.9 303.9,461.3 301.5,461.7 299.1,462.1 296.7,462.5 294.3,462.8 291.9,463.1 289.5,463.4 287.1,463.6 284.7,463.8 
	282.3,464 279.9,464.1 277.5,464.2 275,464.3 272.6,464.4 270.2,464.4 267.8,464.4 265.4,464.4 262.9,464.3 260.5,464.2 
	258.1,464.1 255.7,463.9 253.3,463.7 250.9,463.5 248.5,463.3 246.1,463 243.7,462.7 241.3,462.4 238.9,462 236.5,461.6 
	234.1,461.2 231.7,460.7 229.3,460.3 227,459.7 224.6,459.2 222.3,458.6 219.9,458 217.6,457.4 215.2,456.8 212.9,456.1 
	210.6,455.4 208.3,454.6 206,453.8 203.7,453 201.5,452.2 199.2,451.4 196.9,450.5 194.7,449.6 192.5,448.6 190.2,447.6 188,446.7 
	185.8,445.6 183.7,444.6 181.5,443.5 179.3,442.4 177.2,441.3 175.1,440.1 173,438.9 170.9,437.7 168.8,436.5 166.7,435.2 
	164.7,433.9 162.6,432.6 160.6,431.3 158.6,429.9 156.6,428.5 154.7,427.1 152.7,425.7 150.8,424.2 152.7,421.8 154.6,419.3 
	156.4,416.8 158.3,414.4 160.2,411.9 162.1,409.4 163.9,410.7 165.6,412 167.4,413.3 169.2,414.6 171,415.8 172.8,417 174.7,418.2 
	176.5,419.4 178.4,420.5 180.3,421.6 182.2,422.7 184.1,423.8 186,424.8 187.9,425.9 189.9,426.8 191.9,427.8 193.8,428.8 
	195.8,429.7 197.8,430.6 199.8,431.5 201.8,432.3 203.9,433.1 205.9,433.9 207.9,434.7 210,435.5 212.1,436.2 214.1,436.9 
	216.2,437.6 218.3,438.2 220.4,438.8 222.5,439.4 224.6,440 226.8,440.5 228.9,441 231,441.5 233.2,442 235.3,442.4 237.5,442.8 
	239.6,443.2 241.8,443.6 243.9,443.9 246.1,444.2 248.3,444.5 250.5,444.7 252.6,445 254.8,445.1 257,445.3 259.2,445.5 
	261.4,445.6 263.6,445.7 265.7,445.7 267.9,445.7 270.1,445.7 272.3,445.7 274.5,445.7 276.7,445.6 278.9,445.5 281.1,445.4 
	283.2,445.2 285.4,445 287.6,444.8 289.8,444.6 292,444.3 294.1,444 296.3,443.7 298.4,443.3 300.6,443 302.8,442.6 304.9,442.1 "/>
<polygon class="st0" points="161.6,409.1 159.7,411.5 157.8,414 155.9,416.4 154,418.9 152.1,421.4 150.2,423.8 148.3,422.3 
	146.4,420.8 144.6,419.3 142.7,417.7 140.9,416.1 139.1,414.5 137.3,412.9 135.5,411.3 133.8,409.6 132,407.9 130.3,406.2 
	128.6,404.4 127,402.7 125.3,400.9 123.7,399.1 122.1,397.3 120.5,395.5 119,393.6 117.4,391.7 115.9,389.8 114.5,387.9 113,386 
	111.6,384 110.1,382.1 108.8,380.1 107.4,378.1 106.1,376.1 104.7,374 103.5,372 102.2,369.9 101,367.8 99.8,365.7 98.6,363.6 
	97.4,361.5 96.3,359.4 99,357.9 101.8,356.5 104.6,355.1 107.3,353.6 110.1,352.2 112.8,350.8 113.9,352.7 114.9,354.6 116,356.5 
	117.1,358.4 118.2,360.3 119.3,362.2 120.5,364 121.7,365.9 122.9,367.7 124.1,369.5 125.4,371.3 126.6,373.1 127.9,374.8 
	129.3,376.6 130.6,378.3 132,380 133.4,381.7 134.8,383.4 136.2,385.1 137.6,386.7 139.1,388.3 140.6,389.9 142.1,391.5 
	143.6,393.1 145.2,394.6 146.7,396.2 148.3,397.7 149.9,399.2 151.5,400.7 153.2,402.1 154.8,403.5 156.5,404.9 158.2,406.3 
	159.9,407.7 "/>
<polygon class="st0" points="112.6,350.2 109.8,351.6 107,353.1 104.3,354.5 101.5,355.9 98.7,357.3 96,358.8 94.9,356.6 
	93.8,354.4 92.8,352.2 91.7,350 90.8,347.8 89.8,345.6 88.9,343.4 88,341.1 87.1,338.9 86.2,336.6 85.4,334.3 84.6,332 83.9,329.8 
	83.1,327.4 82.4,325.1 81.7,322.8 81.1,320.5 80.5,318.1 79.9,315.8 79.3,313.4 78.8,311.1 78.3,308.7 77.8,306.3 77.4,303.9 
	76.9,301.6 76.6,299.2 76.2,296.8 75.9,294.4 75.6,292 75.3,289.6 75.1,287.2 74.9,284.8 74.7,282.3 74.6,279.9 74.4,277.5 
	77.5,277.4 80.7,277.2 83.8,277.1 86.9,277 90,276.9 93.1,276.7 93.2,278.9 93.3,281.1 93.5,283.3 93.7,285.5 93.9,287.6 
	94.1,289.8 94.4,292 94.7,294.2 95,296.3 95.3,298.5 95.7,300.6 96.1,302.8 96.6,304.9 97,307.1 97.5,309.2 98,311.3 98.5,313.5 
	99.1,315.6 99.7,317.7 100.3,319.8 100.9,321.9 101.6,324 102.3,326.1 103,328.1 103.7,330.2 104.5,332.2 105.3,334.3 106.1,336.3 
	107,338.3 107.8,340.3 108.7,342.3 109.7,344.3 110.6,346.3 111.6,348.3 "/>
<polygon class="st1" points="93.1,261.3 90,261.2 86.9,261.1 83.8,260.9 80.7,260.8 77.6,260.6 74.5,260.5 74.6,258 74.8,255.6 
	74.9,253.2 75.2,250.7 75.4,248.3 75.7,245.9 76,243.5 76.3,241 76.7,238.6 77.1,236.2 77.5,233.8 78,231.4 78.5,229 79,226.6 
	79.6,224.2 80.1,221.9 80.7,219.5 81.4,217.1 82.1,214.8 82.7,212.4 83.5,210.1 84.2,207.8 85,205.5 85.8,203.2 86.7,200.9 
	87.5,198.6 88.4,196.3 89.4,194.1 90.3,191.8 91.3,189.6 92.3,187.3 93.4,185.1 94.4,182.9 95.5,180.8 96.7,178.6 97.8,176.4 
	99,174.3 100.2,172.2 101.4,170 102.7,168 104,165.9 105.3,163.8 106.6,161.8 108,159.7 109.4,157.7 110.8,155.7 112.2,153.7 
	113.7,151.8 115.1,149.8 116.7,147.9 118.2,146 119.7,144.1 121.3,142.3 122.9,140.4 124.6,138.6 126.2,136.8 127.9,135 
	129.6,133.3 131.3,131.5 133,129.8 134.8,128.1 136.6,126.4 138.4,124.8 140.2,123.1 142,121.5 143.9,120 145.8,118.4 147.7,116.9 
	149.6,115.3 151.5,113.9 153.5,112.4 155.5,111 157.5,109.5 159.5,108.1 161.5,106.8 163.5,105.4 165.6,104.1 167.7,102.8 
	169.8,101.6 171.9,100.4 174,99.1 176.2,98 178.3,96.8 180.5,95.7 182.7,94.6 184.9,93.5 187.1,92.5 189.3,91.5 191.5,90.5 
	193.8,89.5 196,88.6 198.3,87.7 200.6,86.8 202.9,85.9 205.2,85.1 207.5,84.3 209.8,83.6 212.1,82.8 214.5,82.1 216.8,81.5 
	219.2,80.8 221.6,80.2 223.9,79.6 226.3,79.1 227,82.1 227.7,85.1 228.4,88.2 229.1,91.2 229.7,94.2 230.4,97.3 228.3,97.8 
	226.1,98.3 224,98.9 221.9,99.4 219.7,100 217.6,100.7 215.5,101.3 213.4,102 211.3,102.7 209.2,103.5 207.2,104.2 205.1,105 
	203,105.9 201,106.7 199,107.6 196.9,108.5 194.9,109.4 192.9,110.3 190.9,111.3 189,112.3 187,113.3 185.1,114.4 183.1,115.4 
	181.2,116.5 179.3,117.6 177.4,118.8 175.5,119.9 173.7,121.1 171.8,122.3 170,123.6 168.2,124.8 166.4,126.1 164.6,127.4 
	162.8,128.7 161,130.1 159.3,131.4 157.6,132.8 155.9,134.2 154.2,135.7 152.5,137.1 150.9,138.6 149.3,140.1 147.7,141.6 
	146.1,143.1 144.5,144.7 142.9,146.3 141.4,147.9 139.9,149.5 138.4,151.1 136.9,152.8 135.5,154.4 134.1,156.1 132.6,157.8 
	131.3,159.5 129.9,161.3 128.6,163 127.2,164.8 125.9,166.6 124.7,168.4 123.4,170.2 122.2,172 121,173.9 119.8,175.8 118.6,177.6 
	117.5,179.5 116.4,181.5 115.3,183.4 114.2,185.3 113.2,187.3 112.2,189.2 111.2,191.2 110.2,193.2 109.3,195.2 108.3,197.2 
	107.5,199.2 106.6,201.3 105.7,203.3 104.9,205.4 104.1,207.4 103.4,209.5 102.6,211.6 101.9,213.7 101.3,215.8 100.6,217.9 
	100,220 99.4,222.1 98.8,224.3 98.2,226.4 97.7,228.5 97.2,230.7 96.7,232.9 96.3,235 95.9,237.2 95.5,239.4 95.1,241.6 94.8,243.7 
	94.5,245.9 94.2,248.1 94,250.3 93.7,252.5 93.5,254.7 93.4,256.9 93.2,259.1 "/>
<polygon class="st1" points="231,97.1 230.3,94.1 229.7,91.1 229,88 228.3,85 227.6,82 227,78.9 229.3,78.4 231.7,77.9 234.1,77.5 
	236.5,77.1 238.9,76.7 241.3,76.3 243.7,76 246.1,75.7 248.5,75.4 250.9,75.1 253.3,74.9 255.7,74.7 258.1,74.6 260.5,74.5 
	262.9,74.4 265.4,74.3 267.8,74.3 270.2,74.3 272.6,74.3 275,74.4 277.5,74.4 279.9,74.6 282.3,74.7 284.7,74.9 287.1,75.1 
	289.5,75.3 291.9,75.6 294.3,75.9 296.7,76.2 299.1,76.6 301.5,76.9 303.9,77.4 306.3,77.8 308.7,78.3 311,78.8 310.4,81.8 
	309.7,84.9 309,87.9 308.4,90.9 307.7,94 307,97 304.9,96.5 302.8,96.1 300.6,95.7 298.4,95.3 296.3,95 294.1,94.7 292,94.4 
	289.8,94.1 287.6,93.9 285.4,93.7 283.2,93.5 281.1,93.3 278.9,93.2 276.7,93.1 274.5,93 272.3,92.9 270.1,92.9 267.9,92.9 
	265.7,93 263.6,93 261.4,93.1 259.2,93.2 257,93.4 254.8,93.5 252.6,93.7 250.5,93.9 248.3,94.2 246.1,94.5 243.9,94.8 241.8,95.1 
	239.6,95.4 237.5,95.8 235.3,96.2 233.2,96.7 "/>
<polygon class="st1" points="307.6,97.1 308.3,94.1 309,91.1 309.7,88 310.3,85 311,82 311.7,78.9 314.1,79.5 316.4,80 318.8,80.6 
	321.1,81.3 323.4,81.9 325.7,82.6 328.1,83.3 330.4,84.1 332.7,84.8 334.9,85.6 337.2,86.5 339.5,87.3 341.7,88.2 344,89.1 
	346.2,90.1 348.4,91 350.6,92 352.8,93 355,94.1 357.2,95.2 359.3,96.3 361.5,97.4 363.6,98.6 365.7,99.7 367.8,100.9 369.9,102.2 
	372,103.4 374,104.7 376,106 378.1,107.4 380.1,108.7 382,110.1 384,111.5 386,113 387.9,114.4 389.8,115.9 391.7,117.4 393.6,119 
	395.4,120.5 397.3,122.1 399.1,123.7 400.9,125.3 402.7,126.9 404.4,128.6 406.2,130.3 407.9,132 409.6,133.7 411.2,135.5 
	412.9,137.3 414.5,139 416.1,140.9 417.7,142.7 419.3,144.5 420.8,146.4 422.3,148.3 423.8,150.2 425.3,152.1 426.7,154.1 
	428.1,156 429.5,158 430.9,160 432.2,162 433.6,164.1 434.8,166.1 436.1,168.2 437.4,170.2 438.6,172.3 439.8,174.4 440.9,176.6 
	442.1,178.7 439.3,180.1 436.6,181.6 433.8,183 431.1,184.5 428.3,185.9 425.5,187.4 424.5,185.4 423.5,183.5 422.4,181.6 
	421.3,179.7 420.2,177.8 419,176 417.8,174.1 416.7,172.3 415.4,170.5 414.2,168.7 412.9,166.9 411.7,165.1 410.4,163.3 409,161.6 
	407.7,159.9 406.3,158.2 404.9,156.5 403.5,154.8 402.1,153.1 400.6,151.5 399.2,149.9 397.7,148.3 396.2,146.7 394.6,145.1 
	393.1,143.6 391.5,142.1 389.9,140.6 388.3,139.1 386.7,137.6 385,136.2 383.4,134.7 381.7,133.3 380,131.9 378.3,130.6 
	376.6,129.2 374.8,127.9 373,126.6 371.3,125.4 369.5,124.1 367.7,122.9 365.8,121.7 364,120.5 362.1,119.3 360.3,118.2 
	358.4,117.1 356.5,116 354.6,114.9 352.7,113.8 350.7,112.8 348.8,111.8 346.8,110.8 344.8,109.9 342.9,109 340.9,108.1 
	338.9,107.2 336.8,106.3 334.8,105.5 332.8,104.7 330.7,103.9 328.7,103.2 326.6,102.5 324.5,101.8 322.4,101.1 320.4,100.5 
	318.3,99.8 316.1,99.2 314,98.7 311.9,98.1 309.8,97.6 "/>
<polygon class="st1" points="425.8,187.9 428.6,186.5 431.4,185 434.1,183.6 436.9,182.2 439.6,180.7 442.4,179.3 443.5,181.5 
	444.6,183.6 445.6,185.8 446.6,188 447.6,190.2 448.6,192.4 449.5,194.7 450.5,196.9 451.3,199.2 452.2,201.4 453,203.7 453.8,206 
	454.6,208.3 455.3,210.6 456.1,212.9 456.7,215.2 457.4,217.5 458,219.9 458.6,222.2 459.2,224.6 459.7,226.9 460.2,229.3 
	460.7,231.7 461.2,234.1 461.6,236.4 462,238.8 462.4,241.2 462.7,243.6 463,246 463.3,248.4 463.5,250.8 463.7,253.2 463.9,255.7 
	464.1,258.1 464.2,260.5 461.1,260.6 458,260.8 454.9,260.9 451.8,261.1 448.7,261.2 445.6,261.3 445.5,259.1 445.3,257 
	445.1,254.8 445,252.6 444.7,250.4 444.5,248.2 444.2,246.1 443.9,243.9 443.6,241.7 443.2,239.6 442.8,237.4 442.4,235.3 
	442,233.1 441.5,231 441,228.9 440.5,226.7 440,224.6 439.4,222.5 438.8,220.4 438.2,218.3 437.6,216.2 436.9,214.1 436.2,212 
	435.5,210 434.7,207.9 433.9,205.9 433.1,203.8 432.3,201.8 431.5,199.8 430.6,197.8 429.7,195.8 428.8,193.8 427.8,191.8 
	426.8,189.9 "/>
<polygon class="st2" points="440.5,276.5 436.8,276.3 433.2,276.1 429.5,275.9 425.9,275.6 422.3,275.3 418.8,274.9 415.3,274.5 
	411.8,274.1 408.3,273.6 404.9,273.1 401.5,272.5 398.1,271.9 394.8,271.3 391.5,270.6 388.3,269.9 385,269.2 381.8,268.4 
	378.6,267.6 375.5,266.7 372.4,265.8 369.3,264.9 366.3,263.9 363.3,262.9 360.3,261.9 357.3,260.8 354.4,259.7 351.5,258.5 
	348.7,257.3 345.9,256.1 343.1,254.8 340.3,253.5 337.6,252.2 334.9,250.8 332.2,249.4 329.6,247.9 327,246.4 324.4,244.9 
	321.9,243.3 319.4,241.7 316.9,240 314.4,238.3 312,236.6 309.6,234.9 307.3,233.1 305,231.2 302.7,229.3 300.4,227.4 298.2,225.5 
	296,223.5 293.9,221.5 291.7,219.4 289.6,217.3 287.6,215.2 285.5,213 283.5,210.8 281.5,208.5 279.6,206.2 277.7,203.9 
	275.8,201.5 274,199.1 272.2,196.7 270.4,194.2 268.6,191.7 266.9,189.1 265.2,186.5 263.6,183.9 261.9,181.2 260.3,178.5 
	258.8,175.8 257.2,173 255.7,170.2 254.3,167.3 252.8,164.4 251.4,161.5 250.1,158.5 248.7,155.5 247.4,152.5 246.1,149.4 
	244.9,146.2 243.7,143.1 242.5,139.9 241.3,136.7 240.2,133.4 239.1,130.1 238.1,126.7 237,123.3 236,119.9 235.1,116.4 
	234.1,112.9 233.2,109.4 232.4,105.8 231.5,102.2 228.2,103 225,103.8 221.7,104.7 218.5,105.7 215.3,106.7 212.1,107.8 208.9,109 
	205.7,110.2 202.6,111.5 199.5,112.9 196.4,114.3 193.4,115.7 190.4,117.3 187.4,118.9 184.4,120.5 181.5,122.2 178.6,124 
	175.8,125.8 172.9,127.7 170.2,129.6 167.4,131.6 164.7,133.6 166.7,136.2 168.8,138.8 170.8,141.4 172.8,144 174.9,146.5 
	177,149.1 179,151.6 181.1,154.2 183.2,156.7 185.3,159.2 187.4,161.7 189.5,164.2 191.6,166.7 193.8,169.1 195.9,171.6 198,174 
	200.2,176.5 202.4,178.9 204.5,181.3 206.7,183.7 208.9,186.1 211.1,188.5 213.3,190.9 215.5,193.2 217.8,195.6 220,197.9 
	222.3,200.2 224.5,202.6 226.8,204.9 229,207.2 231.3,209.5 233.6,211.7 235.9,214 238.2,216.3 240.5,218.5 242.9,220.7 245.2,223 
	247.5,225.2 249.9,227.4 252.2,229.6 254.6,231.7 257,233.9 259.4,236.1 261.8,238.2 264.2,240.4 266.6,242.5 269,244.6 
	271.4,246.7 273.9,248.8 276.3,250.9 278.8,253 281.3,255 283.7,257.1 286.2,259.1 288.7,261.2 291.2,263.2 293.7,265.2 
	296.2,267.2 298.8,269.2 301.3,271.2 303.8,273.2 306.4,275.1 309,277.1 311.5,279 314.1,280.9 316.7,282.9 319.3,284.8 
	321.9,286.7 324.5,288.5 327.1,290.4 329.8,292.3 332.4,294.1 335.1,296 337.7,297.8 340.4,299.6 343.1,301.4 345.8,303.2 
	348.5,305 351.2,306.8 353.9,308.6 356.6,310.3 359.3,312.1 362.1,313.8 364.8,315.6 367.6,317.3 370.3,319 373.1,320.7 
	375.9,322.4 378.7,324 381.5,325.7 384.3,327.4 387.1,329 389.9,330.6 392.8,332.3 395.6,333.9 398.5,335.5 401.3,337.1 
	404.2,338.6 407.1,340.2 410,341.8 412.9,343.3 415.8,344.8 418.7,346.4 421.6,347.9 423.1,344.9 424.6,341.8 426,338.7 
	427.3,335.6 428.6,332.5 429.8,329.3 431,326.2 432.1,323 433.1,319.7 434.1,316.5 435,313.2 435.8,310 436.6,306.7 437.3,303.3 
	437.9,300 438.5,296.7 439,293.3 439.4,290 439.8,286.6 440.1,283.3 440.4,279.9 "/>
<polyline class="st3" points="431.7,312.3 428.4,311.4 425.1,310.5 421.9,309.5 418.6,308.6 415.4,307.6 412.2,306.5 409.1,305.5 
	405.9,304.4 402.8,303.3 399.6,302.2 396.5,301.1 393.5,299.9 390.4,298.8 387.4,297.6 384.3,296.3 381.3,295.1 378.3,293.8 
	375.4,292.5 372.4,291.2 369.5,289.9 366.6,288.5 363.7,287.2 360.8,285.8 357.9,284.3 355.1,282.9 352.3,281.4 349.5,279.9 
	346.7,278.4 343.9,276.9 341.2,275.3 338.5,273.8 335.7,272.2 333.1,270.5 330.4,268.9 327.7,267.2 325.1,265.5 322.5,263.8 
	319.9,262.1 317.3,260.3 314.7,258.5 312.2,256.7 309.7,254.9 307.2,253.1 304.7,251.2 302.2,249.3 299.8,247.4 297.3,245.5 
	294.9,243.5 292.5,241.5 290.1,239.5 287.8,237.5 285.4,235.5 283.1,233.4 280.8,231.3 278.5,229.2 276.3,227.1 274,224.9 
	271.8,222.7 269.6,220.5 267.4,218.3 265.2,216.1 263.1,213.8 260.9,211.5 258.8,209.2 256.7,206.9 254.6,204.5 252.6,202.1 
	250.5,199.7 248.5,197.3 246.5,194.9 244.5,192.4 242.6,189.9 240.6,187.4 238.7,184.9 236.8,182.3 234.9,179.7 233,177.1 
	231.1,174.5 229.3,171.9 227.5,169.2 225.7,166.5 223.9,163.8 222.1,161.1 220.4,158.3 218.7,155.5 216.9,152.7 215.3,149.9 
	213.6,147 211.9,144.2 210.3,141.3 208.7,138.4 207.1,135.4 205.5,132.5 203.9,129.5 202.4,126.5 200.9,123.5 199.4,120.4 
	197.9,117.4 196.4,114.3 "/>
<polygon class="st4" points="431.7,307.5 432.1,307.7 432.4,307.8 432.8,308 433.1,308.2 433.4,308.4 433.7,308.7 434,309 
	434.2,309.3 434.5,309.6 434.6,310 434.8,310.3 434.9,310.7 435,311.1 435.1,311.5 435.1,311.9 435.1,312.3 435.1,312.6 435,313 
	434.9,313.4 434.8,313.8 434.6,314.1 434.4,314.5 434.2,314.8 433.9,315.1 433.7,315.4 433.4,315.7 433,315.9 432.7,316.1 
	432.4,316.3 432,316.4 431.6,316.5 431.2,316.6 430.8,316.6 430.4,316.7 430,316.6 429.7,316.6 429.3,316.5 428.9,316.4 
	428.5,316.2 428.2,316.1 427.9,315.8 427.5,315.6 427.2,315.3 427,315.1 426.7,314.8 426.5,314.4 426.3,314.1 426.2,313.7 
	426,313.3 425.9,313 425.9,312.6 425.8,312.2 425.8,311.8 425.9,311.4 426,311 426.1,310.6 426.2,310.3 426.4,309.9 426.5,309.6 
	426.8,309.2 427,308.9 427.3,308.6 427.6,308.4 427.9,308.2 428.3,308 428.6,307.8 429,307.6 429.3,307.5 429.7,307.4 430.1,307.4 
	430.5,307.4 430.9,307.4 431.3,307.5 "/>
<polygon class="st5" points="431.7,307.5 432.1,307.7 432.4,307.8 432.8,308 433.1,308.2 433.4,308.4 433.7,308.7 434,309 
	434.2,309.3 434.5,309.6 434.6,310 434.8,310.3 434.9,310.7 435,311.1 435.1,311.5 435.1,311.9 435.1,312.3 435.1,312.6 435,313 
	434.9,313.4 434.8,313.8 434.6,314.1 434.4,314.5 434.2,314.8 433.9,315.1 433.7,315.4 433.4,315.7 433,315.9 432.7,316.1 
	432.4,316.3 432,316.4 431.6,316.5 431.2,316.6 430.8,316.6 430.4,316.7 430,316.6 429.7,316.6 429.3,316.5 428.9,316.4 
	428.5,316.2 428.2,316.1 427.9,315.8 427.5,315.6 427.2,315.3 427,315.1 426.7,314.8 426.5,314.4 426.3,314.1 426.2,313.7 
	426,313.3 425.9,313 425.9,312.6 425.8,312.2 425.8,311.8 425.9,311.4 426,311 426.1,310.6 426.2,310.3 426.4,309.9 426.5,309.6 
	426.8,309.2 427,308.9 427.3,308.6 427.6,308.4 427.9,308.2 428.3,308 428.6,307.8 429,307.6 429.3,307.5 429.7,307.4 430.1,307.4 
	430.5,307.4 430.9,307.4 431.3,307.5 "/>
<polygon class="st6" points="421.3,348.4 418.1,346.7 414.8,344.9 411.6,343.2 408.5,341.4 405.4,339.6 402.3,337.7 399.3,335.9 
	396.3,334 393.4,332.1 390.5,330.2 387.7,328.2 384.9,326.3 382.1,324.3 379.4,322.3 376.8,320.3 374.2,318.2 371.6,316.2 
	369.1,314.1 366.6,312 364.2,309.9 361.8,307.7 359.4,305.5 357.1,303.4 354.9,301.1 352.7,298.9 350.5,296.7 348.4,294.4 
	346.3,292.1 344.3,289.8 342.3,287.5 340.3,285.1 338.4,282.7 336.6,280.3 334.8,277.9 333,275.5 331.3,273 329.6,270.5 328,268 
	326.4,265.5 324.8,263 323.3,260.4 321.9,257.8 320.5,255.2 319.1,252.6 317.8,249.9 316.5,247.3 315.3,244.6 314.1,241.9 
	312.9,239.1 311.8,236.4 310.8,233.6 309.8,230.8 308.8,228 307.9,225.2 307,222.3 306.2,219.4 305.4,216.5 304.7,213.6 304,210.7 
	303.3,207.7 302.7,204.7 302.1,201.7 301.6,198.7 301.1,195.7 300.7,192.6 300.3,189.5 300,186.4 299.7,183.3 299.4,180.1 
	299.2,177 299.1,173.8 299,170.6 298.9,167.3 298.9,164.1 298.9,160.8 298.9,157.5 299,154.2 299.2,150.8 299.4,147.5 299.6,144.1 
	299.9,140.7 300.2,137.3 300.6,133.9 301,130.4 301.5,126.9 302,123.4 302.5,119.9 303.1,116.3 303.8,112.8 304.5,109.2 
	305.2,105.6 306,101.9 302.7,101.3 299.3,100.6 296,100.1 292.6,99.6 289.3,99.2 285.9,98.8 282.6,98.5 279.2,98.3 275.8,98.1 
	272.4,98 269,98 265.7,98 262.3,98.1 258.9,98.3 255.5,98.5 252.2,98.9 248.8,99.2 245.4,99.7 242.1,100.2 238.8,100.7 235.4,101.4 
	232.1,102.1 232.8,105.3 233.6,108.5 234.3,111.7 235.1,114.9 235.9,118.1 236.6,121.3 237.4,124.5 238.2,127.6 239.1,130.8 
	239.9,134 240.7,137.1 241.6,140.3 242.5,143.4 243.4,146.5 244.3,149.7 245.2,152.8 246.1,155.9 247,159 248,162.1 248.9,165.2 
	249.9,168.3 250.9,171.4 251.9,174.5 252.9,177.6 253.9,180.7 254.9,183.7 256,186.8 257,189.9 258.1,192.9 259.2,195.9 260.3,199 
	261.4,202 262.5,205 263.7,208.1 264.8,211.1 266,214.1 267.1,217.1 268.3,220.1 269.5,223.1 270.7,226.1 271.9,229 273.2,232 
	274.4,235 275.7,238 276.9,240.9 278.2,243.9 279.5,246.8 280.8,249.7 282.2,252.7 283.5,255.6 284.8,258.5 286.2,261.4 
	287.6,264.4 288.9,267.3 290.3,270.2 291.7,273.1 293.2,275.9 294.6,278.8 296,281.7 297.5,284.6 299,287.4 300.4,290.3 
	301.9,293.1 303.4,296 305,298.8 306.5,301.7 308,304.5 309.6,307.3 311.2,310.1 312.8,312.9 314.3,315.7 316,318.5 317.6,321.3 
	319.2,324.1 320.8,326.9 322.5,329.7 324.2,332.5 325.9,335.2 327.5,338 329.3,340.7 331,343.5 332.7,346.2 334.4,348.9 
	336.2,351.7 338,354.4 339.8,357.1 341.5,359.8 343.4,362.5 345.2,365.2 347,367.9 348.8,370.6 350.7,373.3 352.6,376 354.5,378.6 
	356.3,381.3 358.3,384 360.2,386.6 362.1,389.3 364,391.9 366,394.6 368,397.2 369.9,399.8 371.9,402.4 373.9,405 376.6,402.9 
	379.2,400.8 381.8,398.6 384.3,396.4 386.8,394.1 389.3,391.7 391.6,389.3 394,386.9 396.3,384.4 398.5,381.9 400.7,379.3 
	402.9,376.7 405,374 407,371.3 409,368.6 410.9,365.8 412.8,363 414.6,360.2 416.4,357.3 418.1,354.4 419.7,351.4 "/>
<polyline class="st3" points="398.1,377.1 395.5,374.9 393,372.7 390.4,370.4 387.9,368.2 385.4,365.9 383,363.6 380.5,361.3 
	378.1,359 375.8,356.7 373.4,354.4 371.1,352 368.8,349.7 366.5,347.3 364.3,344.9 362,342.5 359.8,340.1 357.7,337.7 355.5,335.3 
	353.4,332.9 351.3,330.4 349.3,328 347.2,325.5 345.2,323 343.2,320.5 341.3,318 339.3,315.4 337.4,312.9 335.5,310.4 333.7,307.8 
	331.9,305.2 330.1,302.6 328.3,300 326.5,297.4 324.8,294.8 323.1,292.2 321.4,289.5 319.8,286.9 318.2,284.2 316.6,281.5 
	315,278.8 313.5,276.1 312,273.4 310.5,270.7 309,267.9 307.6,265.1 306.2,262.4 304.8,259.6 303.4,256.8 302.1,254 300.8,251.2 
	299.5,248.3 298.3,245.5 297.1,242.6 295.9,239.8 294.7,236.9 293.5,234 292.4,231.1 291.3,228.2 290.3,225.2 289.2,222.3 
	288.2,219.4 287.2,216.4 286.2,213.4 285.3,210.4 284.4,207.4 283.5,204.4 282.7,201.4 281.8,198.3 281,195.3 280.2,192.2 
	279.5,189.1 278.8,186 278.1,182.9 277.4,179.8 276.7,176.7 276.1,173.6 275.5,170.4 274.9,167.2 274.4,164.1 273.9,160.9 
	273.4,157.7 272.9,154.5 272.5,151.2 272.1,148 271.7,144.8 271.3,141.5 271,138.2 270.7,134.9 270.4,131.6 270.2,128.3 269.9,125 
	269.7,121.7 269.5,118.3 269.4,115 269.3,111.6 269.2,108.2 269.1,104.8 269.1,101.4 269,98 "/>
<polygon class="st4" points="400.2,372.8 400.5,373 400.7,373.3 401,373.6 401.2,374 401.4,374.3 401.5,374.7 401.6,375.1 
	401.7,375.4 401.8,375.8 401.8,376.2 401.8,376.6 401.8,377 401.7,377.4 401.6,377.8 401.5,378.1 401.3,378.5 401.1,378.8 
	400.9,379.2 400.6,379.5 400.3,379.7 400,380 399.7,380.2 399.4,380.4 399,380.6 398.6,380.7 398.3,380.8 397.9,380.9 397.5,380.9 
	397.1,381 396.7,380.9 396.3,380.9 395.9,380.8 395.5,380.7 395.2,380.5 394.8,380.3 394.5,380.1 394.2,379.9 393.9,379.6 
	393.6,379.3 393.4,379 393.2,378.7 393,378.3 392.8,378 392.7,377.6 392.6,377.2 392.6,376.8 392.5,376.4 392.6,376 392.6,375.6 
	392.7,375.2 392.8,374.9 392.9,374.5 393.1,374.1 393.3,373.8 393.5,373.5 393.8,373.2 394,372.9 394.3,372.6 394.7,372.4 
	395,372.2 395.4,372 395.7,371.9 396.1,371.8 396.5,371.7 396.9,371.7 397.3,371.7 397.7,371.7 398.1,371.8 398.4,371.9 398.8,372 
	399.2,372.1 399.5,372.3 399.9,372.5 "/>
<polygon class="st5" points="400.2,372.8 400.5,373 400.7,373.3 401,373.6 401.2,374 401.4,374.3 401.5,374.7 401.6,375.1 
	401.7,375.4 401.8,375.8 401.8,376.2 401.8,376.6 401.8,377 401.7,377.4 401.6,377.8 401.5,378.1 401.3,378.5 401.1,378.8 
	400.9,379.2 400.6,379.5 400.3,379.7 400,380 399.7,380.2 399.4,380.4 399,380.6 398.6,380.7 398.3,380.8 397.9,380.9 397.5,380.9 
	397.1,381 396.7,380.9 396.3,380.9 395.9,380.8 395.5,380.7 395.2,380.5 394.8,380.3 394.5,380.1 394.2,379.9 393.9,379.6 
	393.6,379.3 393.4,379 393.2,378.7 393,378.3 392.8,378 392.7,377.6 392.6,377.2 392.6,376.8 392.5,376.4 392.6,376 392.6,375.6 
	392.7,375.2 392.8,374.9 392.9,374.5 393.1,374.1 393.3,373.8 393.5,373.5 393.8,373.2 394,372.9 394.3,372.6 394.7,372.4 
	395,372.2 395.4,372 395.7,371.9 396.1,371.8 396.5,371.7 396.9,371.7 397.3,371.7 397.7,371.7 398.1,371.8 398.4,371.9 398.8,372 
	399.2,372.1 399.5,372.3 399.9,372.5 "/>
<polygon class="st7" points="373.5,405.4 371,402.1 368.5,398.8 366.2,395.5 363.9,392.3 361.7,389 359.6,385.8 357.6,382.6 
	355.6,379.4 353.7,376.2 351.9,373.1 350.1,369.9 348.5,366.8 346.9,363.7 345.4,360.6 343.9,357.5 342.6,354.5 341.3,351.4 
	340.1,348.4 339,345.4 337.9,342.4 336.9,339.4 336,336.5 335.2,333.5 334.4,330.6 333.8,327.7 333.2,324.8 332.6,321.9 
	332.2,319.1 331.8,316.2 331.5,313.4 331.3,310.6 331.2,307.8 331.1,305 331.1,302.3 331.2,299.5 331.4,296.8 331.6,294.1 
	331.9,291.4 332.3,288.7 332.8,286.1 333.3,283.4 333.9,280.8 334.6,278.2 335.4,275.6 336.2,273.1 337.2,270.5 338.2,268 
	339.2,265.4 340.4,262.9 341.6,260.5 342.9,258 344.3,255.5 345.7,253.1 347.3,250.7 348.9,248.3 350.6,245.9 352.3,243.5 
	354.2,241.2 356.1,238.8 358.1,236.5 360.1,234.2 362.3,231.9 364.5,229.6 366.8,227.4 369.1,225.2 371.6,222.9 374.1,220.7 
	376.7,218.6 379.4,216.4 382.1,214.2 385,212.1 387.9,210 390.8,207.9 393.9,205.8 397,203.7 400.2,201.7 403.5,199.6 406.9,197.6 
	410.3,195.6 413.8,193.6 417.4,191.7 421.1,189.7 419.5,186.7 417.8,183.8 416.1,180.9 414.3,178 412.5,175.2 410.6,172.4 
	408.6,169.6 406.7,166.9 404.6,164.2 402.5,161.5 400.3,158.9 398.1,156.3 395.9,153.8 393.6,151.3 391.2,148.9 388.8,146.5 
	386.4,144.2 383.9,141.9 381.3,139.7 378.8,137.5 376.1,135.3 373.5,133.3 371.4,136 369.4,138.7 367.4,141.5 365.4,144.2 
	363.4,147 361.5,149.7 359.6,152.5 357.7,155.2 355.9,158 354.1,160.8 352.3,163.6 350.5,166.4 348.8,169.2 347.1,172 345.4,174.8 
	343.8,177.6 342.2,180.4 340.6,183.3 339,186.1 337.5,188.9 336,191.8 334.5,194.6 333,197.5 331.6,200.4 330.2,203.3 328.9,206.1 
	327.5,209 326.2,211.9 325,214.8 323.7,217.7 322.5,220.6 321.3,223.5 320.1,226.5 319,229.4 317.9,232.3 316.8,235.3 315.8,238.2 
	314.7,241.2 313.7,244.1 312.8,247.1 311.8,250.1 310.9,253.1 310.1,256.1 309.2,259 308.4,262 307.6,265 306.8,268.1 306.1,271.1 
	305.4,274.1 304.7,277.1 304,280.2 303.4,283.2 302.8,286.3 302.2,289.3 301.7,292.4 301.2,295.4 300.7,298.5 300.2,301.6 
	299.8,304.7 299.4,307.8 299,310.9 298.7,314 298.4,317.1 298.1,320.2 297.8,323.3 297.6,326.5 297.4,329.6 297.2,332.7 
	297.1,335.9 296.9,339 296.9,342.2 296.8,345.4 296.8,348.5 296.8,351.7 296.8,354.9 296.8,358.1 296.9,361.3 297,364.5 
	297.2,367.7 297.3,370.9 297.5,374.2 297.7,377.4 298,380.6 298.3,383.9 298.6,387.1 298.9,390.4 299.3,393.6 299.7,396.9 
	300.1,400.2 300.5,403.5 301,406.7 301.5,410 302,413.3 302.6,416.6 303.2,419.9 303.8,423.3 304.4,426.6 305.1,429.9 305.8,433.2 
	306.5,436.6 309.8,435.8 313.1,435 316.4,434.1 319.6,433.1 322.8,432.1 326.1,431 329.2,429.9 332.4,428.7 335.5,427.4 338.6,426 
	341.7,424.6 344.8,423.2 347.8,421.7 350.8,420.1 353.7,418.5 356.7,416.8 359.6,415 362.4,413.2 365.2,411.3 368,409.4 
	370.8,407.4 "/>
<polyline class="st3" points="340.2,421.3 338.7,417.9 337.2,414.6 335.8,411.2 334.4,407.9 333.1,404.6 331.9,401.3 330.7,398 
	329.5,394.7 328.4,391.4 327.3,388.1 326.3,384.9 325.3,381.6 324.4,378.4 323.5,375.2 322.7,372 321.9,368.8 321.2,365.6 
	320.5,362.4 319.9,359.2 319.3,356.1 318.7,352.9 318.2,349.8 317.8,346.7 317.4,343.6 317,340.4 316.7,337.3 316.5,334.3 
	316.3,331.2 316.1,328.1 316,325.1 316,322 316,319 316,316 316.1,313 316.2,310 316.4,307 316.6,304 316.9,301 317.2,298.1 
	317.6,295.1 318,292.2 318.5,289.3 319,286.4 319.6,283.4 320.2,280.6 320.8,277.7 321.6,274.8 322.3,271.9 323.1,269.1 324,266.2 
	324.9,263.4 325.8,260.6 326.8,257.8 327.9,255 329,252.2 330.1,249.4 331.3,246.7 332.5,243.9 333.8,241.2 335.1,238.4 
	336.5,235.7 338,233 339.4,230.3 341,227.6 342.5,224.9 344.2,222.2 345.8,219.6 347.6,216.9 349.3,214.3 351.1,211.7 353,209 
	354.9,206.4 356.9,203.8 358.9,201.2 360.9,198.7 363,196.1 365.2,193.6 367.4,191 369.6,188.5 371.9,186 374.3,183.4 376.7,180.9 
	379.1,178.4 381.6,176 384.1,173.5 386.7,171 389.3,168.6 392,166.2 394.7,163.7 397.5,161.3 400.3,158.9 "/>
<polygon class="st4" points="344,418.5 344.1,418.9 344.3,419.2 344.3,419.6 344.4,420 344.4,420.4 344.4,420.8 344.4,421.2 
	344.3,421.6 344.2,421.9 344,422.3 343.8,422.7 343.6,423 343.4,423.3 343.1,423.6 342.9,423.9 342.6,424.1 342.2,424.4 
	341.9,424.6 341.5,424.7 341.2,424.9 340.8,425 340.4,425 340,425.1 339.6,425.1 339.2,425 338.8,425 338.4,424.9 338.1,424.7 
	337.7,424.6 337.4,424.4 337,424.2 336.7,423.9 336.4,423.7 336.2,423.4 335.9,423.1 335.7,422.7 335.6,422.4 335.4,422 
	335.3,421.6 335.2,421.2 335.1,420.9 335.1,420.5 335.1,420.1 335.2,419.7 335.3,419.3 335.4,418.9 335.5,418.5 335.7,418.2 
	335.9,417.9 336.1,417.5 336.4,417.2 336.7,417 337,416.7 337.3,416.5 337.7,416.3 338,416.1 338.4,416 338.8,415.9 339.2,415.8 
	339.5,415.8 339.9,415.8 340.3,415.8 340.7,415.9 341.1,416 341.5,416.1 341.8,416.3 342.2,416.5 342.5,416.7 342.8,416.9 
	343.1,417.2 343.4,417.5 343.6,417.8 343.8,418.1 "/>
<polygon class="st5" points="344,418.5 344.1,418.9 344.3,419.2 344.3,419.6 344.4,420 344.4,420.4 344.4,420.8 344.4,421.2 
	344.3,421.6 344.2,421.9 344,422.3 343.8,422.7 343.6,423 343.4,423.3 343.1,423.6 342.9,423.9 342.6,424.1 342.2,424.4 
	341.9,424.6 341.5,424.7 341.2,424.9 340.8,425 340.4,425 340,425.1 339.6,425.1 339.2,425 338.8,425 338.4,424.9 338.1,424.7 
	337.7,424.6 337.4,424.4 337,424.2 336.7,423.9 336.4,423.7 336.2,423.4 335.9,423.1 335.7,422.7 335.6,422.4 335.4,422 
	335.3,421.6 335.2,421.2 335.1,420.9 335.1,420.5 335.1,420.1 335.2,419.7 335.3,419.3 335.4,418.9 335.5,418.5 335.7,418.2 
	335.9,417.9 336.1,417.5 336.4,417.2 336.7,417 337,416.7 337.3,416.5 337.7,416.3 338,416.1 338.4,416 338.8,415.9 339.2,415.8 
	339.5,415.8 339.9,415.8 340.3,415.8 340.7,415.9 341.1,416 341.5,416.1 341.8,416.3 342.2,416.5 342.5,416.7 342.8,416.9 
	343.1,417.2 343.4,417.5 343.6,417.8 343.8,418.1 "/>
<polygon class="st8" points="232.1,436.6 232.9,433 233.8,429.4 234.7,425.9 235.6,422.3 236.6,418.9 237.5,415.5 238.6,412.1 
	239.6,408.7 240.7,405.4 241.8,402.1 242.9,398.9 244.1,395.7 245.3,392.5 246.6,389.4 247.8,386.3 249.1,383.2 250.4,380.2 
	251.8,377.2 253.2,374.3 254.6,371.4 256.1,368.5 257.6,365.7 259.1,362.9 260.7,360.2 262.2,357.5 263.9,354.8 265.5,352.2 
	267.2,349.6 268.9,347 270.6,344.5 272.4,342 274.2,339.5 276.1,337.1 277.9,334.7 279.8,332.4 281.8,330.1 283.7,327.9 
	285.7,325.6 287.7,323.4 289.8,321.3 291.9,319.2 294,317.1 296.2,315.1 298.4,313.1 300.6,311.1 302.8,309.2 305.1,307.3 
	307.4,305.5 309.8,303.7 312.1,301.9 314.5,300.2 317,298.5 319.5,296.8 322,295.2 324.5,293.6 327.1,292.1 329.7,290.6 
	332.3,289.1 334.9,287.7 337.6,286.3 340.4,284.9 343.1,283.6 345.9,282.3 348.7,281.1 351.6,279.9 354.5,278.7 357.4,277.6 
	360.3,276.5 363.3,275.4 366.3,274.4 369.3,273.4 372.4,272.5 375.5,271.6 378.7,270.7 381.8,269.9 385,269.1 388.2,268.3 
	391.5,267.6 394.8,266.9 398.1,266.3 401.5,265.7 404.9,265.1 408.3,264.6 411.7,264.1 415.2,263.7 418.7,263.3 422.3,262.9 
	425.9,262.5 429.5,262.2 433.1,262 436.8,261.8 440.5,261.6 440.3,258.2 440.1,254.8 439.7,251.4 439.4,248.1 438.9,244.7 
	438.4,241.4 437.8,238.1 437.2,234.7 436.4,231.4 435.7,228.1 434.8,224.9 433.9,221.6 432.9,218.4 431.9,215.1 430.8,211.9 
	429.6,208.8 428.4,205.6 427.1,202.5 425.8,199.4 424.3,196.3 422.9,193.3 421.3,190.3 418.4,191.8 415.5,193.3 412.6,194.9 
	409.7,196.4 406.8,198 404,199.6 401.1,201.2 398.2,202.8 395.4,204.4 392.6,206 389.7,207.6 386.9,209.3 384.1,210.9 381.3,212.6 
	378.5,214.3 375.7,215.9 372.9,217.6 370.2,219.3 367.4,221.1 364.6,222.8 361.9,224.5 359.2,226.3 356.4,228 353.7,229.8 
	351,231.6 348.3,233.4 345.6,235.2 343,237 340.3,238.8 337.6,240.6 335,242.5 332.3,244.3 329.7,246.2 327.1,248.1 324.5,249.9 
	321.8,251.8 319.2,253.7 316.6,255.7 314.1,257.6 311.5,259.5 308.9,261.5 306.4,263.4 303.8,265.4 301.3,267.4 298.8,269.4 
	296.2,271.4 293.7,273.4 291.2,275.4 288.7,277.4 286.2,279.5 283.8,281.5 281.3,283.6 278.8,285.7 276.4,287.7 274,289.8 
	271.5,291.9 269.1,294.1 266.7,296.2 264.3,298.3 261.9,300.5 259.5,302.6 257.1,304.8 254.7,307 252.4,309.2 250,311.4 
	247.7,313.6 245.4,315.8 243,318 240.7,320.3 238.4,322.5 236.1,324.8 233.8,327.1 231.5,329.3 229.3,331.6 227,333.9 224.7,336.3 
	222.5,338.6 220.3,340.9 218,343.3 215.8,345.6 213.6,348 211.4,350.4 209.2,352.8 207,355.2 204.8,357.6 202.7,360 200.5,362.4 
	198.4,364.9 196.2,367.3 194.1,369.8 192,372.3 189.9,374.8 187.8,377.3 185.7,379.8 183.6,382.3 181.5,384.8 179.4,387.3 
	177.4,389.9 175.3,392.5 173.3,395 171.2,397.6 169.2,400.2 167.2,402.8 165.2,405.4 167.9,407.4 170.6,409.4 173.4,411.3 
	176.3,413.2 179.1,415 182,416.8 184.9,418.5 187.9,420.1 190.9,421.7 193.9,423.2 197,424.6 200,426 203.1,427.4 206.3,428.7 
	209.4,429.9 212.6,431 215.8,432.1 219,433.1 222.3,434.1 225.6,435 228.8,435.8 "/>
<polyline class="st3" points="198.4,421.5 199.9,418.5 201.4,415.4 202.9,412.4 204.4,409.4 206,406.4 207.5,403.4 209.1,400.5 
	210.7,397.6 212.4,394.7 214,391.8 215.7,389 217.4,386.1 219,383.3 220.8,380.5 222.5,377.8 224.3,375 226,372.3 227.8,369.6 
	229.6,367 231.5,364.3 233.3,361.7 235.2,359.1 237.1,356.5 239,353.9 240.9,351.4 242.8,348.9 244.8,346.4 246.8,343.9 
	248.8,341.4 250.8,339 252.8,336.6 254.9,334.2 256.9,331.8 259,329.5 261.1,327.2 263.3,324.9 265.4,322.6 267.6,320.4 
	269.8,318.1 272,315.9 274.2,313.7 276.4,311.6 278.7,309.4 281,307.3 283.2,305.2 285.6,303.1 287.9,301.1 290.2,299.1 292.6,297 
	295,295.1 297.4,293.1 299.8,291.2 302.3,289.2 304.7,287.3 307.2,285.5 309.7,283.6 312.2,281.8 314.8,280 317.3,278.2 
	319.9,276.4 322.5,274.7 325.1,272.9 327.7,271.2 330.4,269.6 333,267.9 335.7,266.3 338.4,264.7 341.2,263.1 343.9,261.5 
	346.7,260 349.4,258.5 352.2,257 355.1,255.5 357.9,254 360.7,252.6 363.6,251.2 366.5,249.8 369.4,248.4 372.3,247.1 375.3,245.8 
	378.3,244.5 381.2,243.2 384.2,241.9 387.3,240.7 390.3,239.5 393.4,238.3 396.4,237.1 399.5,236 402.6,234.9 405.8,233.8 
	408.9,232.7 412.1,231.6 415.3,230.6 418.5,229.6 421.7,228.6 425,227.6 428.2,226.7 431.5,225.8 434.8,224.9 "/>
<polygon class="st4" points="203.1,422.4 203,422.8 202.7,423.1 202.5,423.4 202.2,423.7 201.9,424 201.6,424.2 201.3,424.4 
	201,424.6 200.6,424.8 200.2,424.9 199.8,425 199.5,425.1 199.1,425.1 198.7,425.1 198.3,425 197.9,425 197.5,424.9 197.1,424.7 
	196.8,424.6 196.4,424.4 196.1,424.1 195.8,423.9 195.5,423.6 195.3,423.3 195.1,423 194.9,422.6 194.7,422.3 194.5,421.9 
	194.4,421.5 194.4,421.2 194.3,420.8 194.3,420.4 194.3,420 194.4,419.6 194.5,419.2 194.6,418.8 194.7,418.5 194.9,418.1 
	195.1,417.8 195.4,417.5 195.6,417.2 195.9,416.9 196.2,416.7 196.6,416.5 196.9,416.3 197.3,416.1 197.6,416 198,415.9 
	198.4,415.8 198.8,415.8 199.2,415.8 199.6,415.9 200,415.9 200.4,416 200.7,416.2 201.1,416.3 201.4,416.5 201.8,416.8 202.1,417 
	202.3,417.3 202.6,417.6 202.8,417.9 203,418.2 203.2,418.6 203.3,419 203.4,419.3 203.5,419.7 203.6,420.1 203.6,420.5 
	203.6,420.9 203.5,421.3 203.4,421.7 203.3,422.1 "/>
<polygon class="st5" points="203.1,422.4 203,422.8 202.7,423.1 202.5,423.4 202.2,423.7 201.9,424 201.6,424.2 201.3,424.4 
	201,424.6 200.6,424.8 200.2,424.9 199.8,425 199.5,425.1 199.1,425.1 198.7,425.1 198.3,425 197.9,425 197.5,424.9 197.1,424.7 
	196.8,424.6 196.4,424.4 196.1,424.1 195.8,423.9 195.5,423.6 195.3,423.3 195.1,423 194.9,422.6 194.7,422.3 194.5,421.9 
	194.4,421.5 194.4,421.2 194.3,420.8 194.3,420.4 194.3,420 194.4,419.6 194.5,419.2 194.6,418.8 194.7,418.5 194.9,418.1 
	195.1,417.8 195.4,417.5 195.6,417.2 195.9,416.9 196.2,416.7 196.6,416.5 196.9,416.3 197.3,416.1 197.6,416 198,415.9 
	198.4,415.8 198.8,415.8 199.2,415.8 199.6,415.9 200,415.9 200.4,416 200.7,416.2 201.1,416.3 201.4,416.5 201.8,416.8 202.1,417 
	202.3,417.3 202.6,417.6 202.8,417.9 203,418.2 203.2,418.6 203.3,419 203.4,419.3 203.5,419.7 203.6,420.1 203.6,420.5 
	203.6,420.9 203.5,421.3 203.4,421.7 203.3,422.1 "/>
<polygon class="st9" points="164.7,405 167,402.1 169.2,399.1 171.3,396.2 173.4,393.2 175.5,390.3 177.5,387.3 179.4,384.4 
	181.3,381.4 183.2,378.5 185,375.5 186.7,372.6 188.5,369.6 190.1,366.7 191.7,363.7 193.3,360.8 194.8,357.8 196.2,354.9 
	197.6,351.9 199,349 200.3,346 201.6,343.1 202.8,340.1 204,337.2 205.1,334.2 206.1,331.3 207.1,328.3 208.1,325.4 209,322.4 
	209.9,319.5 210.7,316.5 211.5,313.6 212.2,310.6 212.9,307.7 213.5,304.7 214,301.8 214.6,298.8 215,295.9 215.4,292.9 215.8,290 
	216.1,287 216.4,284.1 216.6,281.1 216.8,278.2 216.9,275.2 217,272.3 217,269.3 217,266.4 216.9,263.4 216.8,260.5 216.6,257.5 
	216.4,254.6 216.1,251.6 215.8,248.7 215.4,245.7 215,242.8 214.6,239.8 214,236.9 213.5,233.9 212.9,231 212.2,228 211.5,225.1 
	210.7,222.1 209.9,219.2 209,216.2 208.1,213.3 207.1,210.3 206.1,207.4 205.1,204.4 204,201.5 202.8,198.5 201.6,195.6 
	200.3,192.6 199,189.7 197.6,186.7 196.2,183.8 194.8,180.8 193.3,177.9 191.7,174.9 190.1,172 188.5,169 186.7,166.1 185,163.1 
	183.2,160.2 181.3,157.2 179.4,154.3 177.5,151.3 175.5,148.4 173.4,145.4 171.3,142.5 169.2,139.5 167,136.6 164.7,133.6 
	162.1,135.7 159.4,137.9 156.9,140.1 154.3,142.3 151.9,144.6 149.4,146.9 147,149.3 144.7,151.8 142.4,154.3 140.1,156.8 
	137.9,159.4 135.8,162 133.7,164.6 131.7,167.3 129.7,170.1 127.7,172.8 125.9,175.7 124,178.5 122.3,181.4 120.6,184.3 
	118.9,187.3 117.3,190.3 121.5,192.5 125.5,194.6 129.5,196.8 133.3,199 137,201.2 140.6,203.4 144,205.6 147.4,207.8 150.6,210 
	153.7,212.2 156.7,214.4 159.6,216.6 162.3,218.8 164.9,221 167.5,223.2 169.9,225.4 172.2,227.6 174.3,229.8 176.4,232 
	178.3,234.2 180.1,236.4 181.8,238.6 183.4,240.8 184.9,243 186.2,245.2 187.5,247.4 188.6,249.6 189.6,251.8 190.5,254 
	191.2,256.2 191.9,258.4 192.4,260.5 192.8,262.7 193.1,264.9 193.3,267.1 193.3,269.3 193.3,271.5 193.1,273.7 192.8,275.9 
	192.4,278.1 191.9,280.3 191.2,282.5 190.5,284.7 189.6,286.9 188.6,289.1 187.5,291.3 186.2,293.5 184.9,295.7 183.4,297.9 
	181.8,300.1 180.1,302.3 178.3,304.5 176.4,306.7 174.3,308.9 172.2,311.1 169.9,313.3 167.5,315.5 164.9,317.7 162.3,319.9 
	159.6,322.1 156.7,324.3 153.7,326.4 150.6,328.6 147.4,330.8 144,333 140.6,335.2 137,337.4 133.3,339.6 129.5,341.8 125.5,344 
	121.5,346.2 117.3,348.4 118.9,351.4 120.6,354.4 122.3,357.3 124,360.2 125.9,363 127.7,365.8 129.7,368.6 131.7,371.3 133.7,374 
	135.8,376.7 137.9,379.3 140.1,381.9 142.4,384.4 144.7,386.9 147,389.3 149.4,391.7 151.9,394.1 154.3,396.4 156.9,398.6 
	159.4,400.8 162.1,402.9 "/>
<polyline class="st3" points="141.1,376.6 144.2,373.9 147.2,371.3 150.1,368.6 153,365.9 155.8,363.2 158.5,360.5 161.1,357.9 
	163.6,355.2 166.1,352.5 168.5,349.8 170.8,347.1 173,344.4 175.1,341.8 177.2,339.1 179.2,336.4 181.1,333.7 183,331 184.7,328.3 
	186.4,325.7 188,323 189.5,320.3 191,317.6 192.3,314.9 193.6,312.3 194.8,309.6 196,306.9 197,304.2 198,301.5 198.9,298.8 
	199.7,296.2 200.5,293.5 201.1,290.8 201.7,288.1 202.2,285.4 202.7,282.7 203,280.1 203.3,277.4 203.5,274.7 203.6,272 
	203.6,269.3 203.6,266.7 203.5,264 203.3,261.3 203,258.6 202.7,255.9 202.2,253.2 201.7,250.6 201.1,247.9 200.5,245.2 
	199.7,242.5 198.9,239.8 198,237.1 197,234.5 196,231.8 194.8,229.1 193.6,226.4 192.3,223.7 191,221.1 189.5,218.4 188,215.7 
	186.4,213 184.7,210.3 183,207.6 181.1,205 179.2,202.3 177.2,199.6 175.1,196.9 173,194.2 170.8,191.5 168.5,188.9 166.1,186.2 
	163.6,183.5 161.1,180.8 158.5,178.1 155.8,175.5 153,172.8 150.1,170.1 147.2,167.4 144.2,164.7 141.1,162 137.9,159.4 "/>
<polygon class="st4" points="144.5,379.9 144.2,380.1 143.8,380.3 143.5,380.5 143.1,380.6 142.8,380.8 142.4,380.9 142,380.9 
	141.6,380.9 141.2,380.9 140.8,380.9 140.4,380.8 140,380.7 139.7,380.6 139.3,380.4 139,380.2 138.7,380 138.3,379.7 138.1,379.5 
	137.8,379.2 137.6,378.8 137.4,378.5 137.2,378.1 137.1,377.8 137,377.4 136.9,377 136.8,376.6 136.8,376.2 136.9,375.8 
	136.9,375.4 137,375.1 137.1,374.7 137.3,374.3 137.5,374 137.7,373.6 137.9,373.3 138.2,373 138.5,372.8 138.8,372.5 139.1,372.3 
	139.5,372.1 139.8,372 140.2,371.8 140.6,371.8 141,371.7 141.4,371.7 141.8,371.7 142.2,371.7 142.5,371.8 142.9,371.9 143.3,372 
	143.6,372.2 144,372.4 144.3,372.6 144.6,372.9 144.9,373.2 145.1,373.5 145.4,373.8 145.6,374.1 145.7,374.5 145.9,374.8 
	146,375.2 146.1,375.6 146.1,376 146.1,376.4 146.1,376.8 146,377.2 145.9,377.6 145.8,377.9 145.7,378.3 145.5,378.6 145.3,379 
	145,379.3 144.8,379.6 "/>
<polygon class="st5" points="144.5,379.9 144.2,380.1 143.8,380.3 143.5,380.5 143.1,380.6 142.8,380.8 142.4,380.9 142,380.9 
	141.6,380.9 141.2,380.9 140.8,380.9 140.4,380.8 140,380.7 139.7,380.6 139.3,380.4 139,380.2 138.7,380 138.3,379.7 138.1,379.5 
	137.8,379.2 137.6,378.8 137.4,378.5 137.2,378.1 137.1,377.8 137,377.4 136.9,377 136.8,376.6 136.8,376.2 136.9,375.8 
	136.9,375.4 137,375.1 137.1,374.7 137.3,374.3 137.5,374 137.7,373.6 137.9,373.3 138.2,373 138.5,372.8 138.8,372.5 139.1,372.3 
	139.5,372.1 139.8,372 140.2,371.8 140.6,371.8 141,371.7 141.4,371.7 141.8,371.7 142.2,371.7 142.5,371.8 142.9,371.9 143.3,372 
	143.6,372.2 144,372.4 144.3,372.6 144.6,372.9 144.9,373.2 145.1,373.5 145.4,373.8 145.6,374.1 145.7,374.5 145.9,374.8 
	146,375.2 146.1,375.6 146.1,376 146.1,376.4 146.1,376.8 146,377.2 145.9,377.6 145.8,377.9 145.7,378.3 145.5,378.6 145.3,379 
	145,379.3 144.8,379.6 "/>
<polygon class="st10" points="117.1,347.9 120,346.4 122.9,344.8 125.8,343.3 128.7,341.8 131.6,340.2 134.5,338.6 137.3,337.1 
	140.2,335.5 143.1,333.9 145.9,332.2 148.7,330.6 151.6,329 154.4,327.3 157.2,325.7 160,324 162.8,322.4 165.6,320.7 168.3,319 
	171.1,317.3 173.8,315.5 176.6,313.8 179.3,312.1 182.1,310.3 184.8,308.6 187.5,306.8 190.2,305 192.9,303.2 195.6,301.4 
	198.2,299.6 200.9,297.8 203.6,295.9 206.2,294.1 208.8,292.2 211.5,290.4 214.1,288.5 216.7,286.6 219.3,284.7 221.9,282.8 
	224.5,280.9 227.1,279 229.6,277 232.2,275.1 234.7,273.1 237.3,271.1 239.8,269.1 242.3,267.1 244.9,265.1 247.4,263.1 
	249.9,261.1 252.4,259.1 254.8,257 257.3,255 259.8,252.9 262.2,250.8 264.7,248.7 267.1,246.6 269.5,244.5 271.9,242.4 
	274.3,240.2 276.7,238.1 279.1,236 281.5,233.8 283.9,231.6 286.2,229.4 288.6,227.2 290.9,225 293.3,222.8 295.6,220.6 
	297.9,218.3 300.2,216.1 302.5,213.8 304.8,211.6 307.1,209.3 309.4,207 311.7,204.7 313.9,202.4 316.2,200 318.4,197.7 
	320.6,195.4 322.8,193 325.1,190.6 327.3,188.3 329.5,185.9 331.6,183.5 333.8,181.1 336,178.6 338.1,176.2 340.3,173.8 
	342.4,171.3 344.6,168.9 346.7,166.4 348.8,163.9 350.9,161.4 353,158.9 355.1,156.4 357.2,153.9 359.2,151.3 361.3,148.8 
	363.3,146.2 365.4,143.6 367.4,141.1 369.5,138.5 371.5,135.9 373.5,133.3 370.8,131.2 368,129.3 365.2,127.3 362.4,125.5 
	359.6,123.7 356.7,121.9 353.7,120.2 350.8,118.6 347.8,117 344.8,115.5 341.7,114 338.6,112.6 335.5,111.3 332.4,110 329.2,108.8 
	326.1,107.6 322.8,106.6 319.6,105.5 316.4,104.6 313.1,103.7 309.8,102.8 306.5,102.1 305.7,105.7 304.9,109.3 304,112.8 
	303.1,116.3 302.1,119.8 301.1,123.2 300.1,126.6 299.1,130 298,133.3 296.9,136.5 295.7,139.8 294.6,143 293.4,146.2 292.1,149.3 
	290.9,152.4 289.6,155.4 288.2,158.4 286.9,161.4 285.5,164.3 284,167.2 282.6,170.1 281.1,172.9 279.6,175.7 278,178.4 
	276.4,181.2 274.8,183.8 273.2,186.5 271.5,189.1 269.8,191.6 268,194.1 266.3,196.6 264.5,199.1 262.6,201.5 260.7,203.8 
	258.8,206.2 256.9,208.5 254.9,210.7 252.9,212.9 250.9,215.1 248.9,217.3 246.8,219.4 244.6,221.4 242.5,223.5 240.3,225.4 
	238.1,227.4 235.8,229.3 233.6,231.2 231.2,233 228.9,234.8 226.5,236.6 224.1,238.3 221.7,240 219.2,241.7 216.7,243.3 
	214.2,244.8 211.6,246.4 209,247.9 206.4,249.3 203.7,250.8 201,252.2 198.3,253.5 195.5,254.8 192.8,256.1 189.9,257.3 
	187.1,258.5 184.2,259.7 181.3,260.8 178.3,261.9 175.4,262.9 172.4,263.9 169.3,264.9 166.2,265.8 163.1,266.7 160,267.6 
	156.8,268.4 153.6,269.2 150.4,269.9 147.1,270.6 143.8,271.3 140.5,271.9 137.2,272.5 133.8,273.1 130.4,273.6 126.9,274.1 
	123.4,274.5 119.9,274.9 116.4,275.3 112.8,275.6 109.2,275.9 105.5,276.1 101.8,276.3 98.1,276.5 98.3,279.9 98.6,283.3 
	98.9,286.6 99.2,290 99.7,293.3 100.2,296.7 100.8,300 101.4,303.3 102.1,306.7 102.9,310 103.7,313.2 104.6,316.5 105.6,319.7 
	106.6,323 107.7,326.2 108.8,329.3 110.1,332.5 111.3,335.6 112.7,338.7 114.1,341.8 115.5,344.9 "/>
<polyline class="st3" points="107,312.3 110.3,311.4 113.6,310.5 116.8,309.5 120,308.6 123.2,307.6 126.4,306.5 129.6,305.5 
	132.8,304.4 135.9,303.3 139,302.2 142.1,301.1 145.2,299.9 148.3,298.8 151.3,297.6 154.3,296.3 157.3,295.1 160.3,293.8 
	163.3,292.5 166.2,291.2 169.2,289.9 172.1,288.5 175,287.1 177.8,285.7 180.7,284.3 183.5,282.9 186.3,281.4 189.1,279.9 
	191.9,278.4 194.7,276.9 197.4,275.3 200.2,273.7 202.9,272.1 205.6,270.5 208.2,268.9 210.9,267.2 213.5,265.5 216.1,263.8 
	218.7,262 221.3,260.3 223.8,258.5 226.4,256.7 228.9,254.9 231.4,253 233.9,251.2 236.4,249.3 238.8,247.4 241.2,245.4 
	243.6,243.5 246,241.5 248.4,239.5 250.7,237.5 253.1,235.4 255.4,233.3 257.7,231.2 260,229.1 262.2,227 264.5,224.8 266.7,222.7 
	268.9,220.4 271.1,218.2 273.2,216 275.4,213.7 277.5,211.4 279.6,209.1 281.7,206.8 283.8,204.4 285.8,202 287.9,199.6 
	289.9,197.2 291.9,194.7 293.9,192.3 295.8,189.8 297.8,187.3 299.7,184.7 301.6,182.2 303.5,179.6 305.4,177 307.2,174.3 
	309,171.7 310.8,169 312.6,166.3 314.4,163.6 316.2,160.9 317.9,158.1 319.6,155.3 321.3,152.5 323,149.7 324.7,146.8 326.3,144 
	327.9,141.1 329.5,138.2 331.1,135.2 332.7,132.3 334.2,129.3 335.8,126.3 337.3,123.2 338.8,120.2 340.3,117.1 341.7,114 "/>
<polygon class="st4" points="109.4,316.5 109,316.6 108.6,316.6 108.2,316.7 107.8,316.6 107.4,316.6 107.1,316.5 106.7,316.4 
	106.3,316.3 106,316.1 105.6,315.9 105.3,315.7 105,315.4 104.7,315.1 104.5,314.8 104.3,314.5 104.1,314.1 103.9,313.8 
	103.8,313.4 103.7,313 103.6,312.6 103.6,312.3 103.6,311.9 103.6,311.5 103.6,311.1 103.7,310.7 103.9,310.3 104,310 104.2,309.6 
	104.4,309.3 104.7,309 104.9,308.7 105.2,308.4 105.6,308.2 105.9,308 106.2,307.8 106.6,307.7 107,307.5 107.4,307.5 107.8,307.4 
	108.2,307.4 108.5,307.4 108.9,307.4 109.3,307.5 109.7,307.6 110.1,307.8 110.4,308 110.8,308.2 111.1,308.4 111.4,308.6 
	111.6,308.9 111.9,309.2 112.1,309.6 112.3,309.9 112.5,310.3 112.6,310.6 112.7,311 112.8,311.4 112.8,311.8 112.8,312.2 
	112.8,312.6 112.7,313 112.6,313.3 112.5,313.7 112.3,314.1 112.2,314.4 111.9,314.8 111.7,315.1 111.4,315.3 111.1,315.6 
	110.8,315.8 110.5,316.1 110.1,316.2 109.8,316.4 "/>
<polygon class="st5" points="109.4,316.5 109,316.6 108.6,316.6 108.2,316.7 107.8,316.6 107.4,316.6 107.1,316.5 106.7,316.4 
	106.3,316.3 106,316.1 105.6,315.9 105.3,315.7 105,315.4 104.7,315.1 104.5,314.8 104.3,314.5 104.1,314.1 103.9,313.8 
	103.8,313.4 103.7,313 103.6,312.6 103.6,312.3 103.6,311.9 103.6,311.5 103.6,311.1 103.7,310.7 103.9,310.3 104,310 104.2,309.6 
	104.4,309.3 104.7,309 104.9,308.7 105.2,308.4 105.6,308.2 105.9,308 106.2,307.8 106.6,307.7 107,307.5 107.4,307.5 107.8,307.4 
	108.2,307.4 108.5,307.4 108.9,307.4 109.3,307.5 109.7,307.6 110.1,307.8 110.4,308 110.8,308.2 111.1,308.4 111.4,308.6 
	111.6,308.9 111.9,309.2 112.1,309.6 112.3,309.9 112.5,310.3 112.6,310.6 112.7,311 112.8,311.4 112.8,311.8 112.8,312.2 
	112.8,312.6 112.7,313 112.6,313.3 112.5,313.7 112.3,314.1 112.2,314.4 111.9,314.8 111.7,315.1 111.4,315.3 111.1,315.6 
	110.8,315.8 110.5,316.1 110.1,316.2 109.8,316.4 "/>
<polygon class="st11" points="306,436.7 305.2,433.4 304.5,430.1 303.7,426.8 302.8,423.5 302,420.2 301.2,417 300.3,413.7 
	299.4,410.5 298.4,407.3 297.5,404.1 296.5,401 295.5,397.8 294.5,394.7 293.4,391.6 292.4,388.5 291.3,385.4 290.2,382.4 
	289,379.3 287.9,376.3 286.7,373.3 285.5,370.3 284.3,367.3 283,364.4 281.7,361.5 280.4,358.5 279.1,355.6 277.8,352.8 
	276.4,349.9 275,347.1 273.6,344.2 272.2,341.4 270.7,338.6 269.2,335.9 267.7,333.1 266.2,330.4 264.6,327.6 263.1,324.9 
	261.5,322.3 259.8,319.6 258.2,316.9 256.5,314.3 254.8,311.7 253.1,309.1 251.4,306.5 249.6,304 247.9,301.4 246,298.9 
	244.2,296.4 242.4,293.9 240.5,291.4 238.6,289 236.7,286.5 234.7,284.1 232.8,281.7 230.8,279.3 228.8,276.9 226.7,274.6 
	224.7,272.3 222.6,269.9 220.5,267.6 218.3,265.4 216.2,263.1 214,260.9 211.8,258.6 209.6,256.4 207.4,254.2 205.1,252.1 
	202.8,249.9 200.5,247.8 198.1,245.7 195.8,243.5 193.4,241.5 191,239.4 188.6,237.3 186.1,235.3 183.6,233.3 181.1,231.3 
	178.6,229.3 176.1,227.4 173.5,225.4 170.9,223.5 168.3,221.6 165.7,219.7 163,217.8 160.3,216 157.6,214.1 154.9,212.3 
	152.1,210.5 149.4,208.7 146.6,207 143.8,205.2 140.9,203.5 138,201.8 135.2,200.1 132.2,198.4 129.3,196.7 126.3,195.1 
	123.4,193.5 120.4,191.8 117.3,190.3 115.8,193.3 114.3,196.3 112.9,199.4 111.6,202.5 110.3,205.6 109,208.8 107.9,211.9 
	106.8,215.1 105.7,218.4 104.8,221.6 103.9,224.9 103,228.1 102.2,231.4 101.5,234.7 100.9,238.1 100.3,241.4 99.8,244.7 
	99.3,248.1 98.9,251.4 98.6,254.8 98.4,258.2 98.2,261.6 102.3,261.8 106.4,262 110.4,262.3 114.4,262.7 118.3,263.1 122.1,263.6 
	125.9,264.1 129.6,264.6 133.2,265.2 136.8,265.8 140.3,266.5 143.8,267.3 147.2,268 150.5,268.9 153.8,269.7 157,270.7 
	160.2,271.6 163.3,272.7 166.3,273.7 169.3,274.8 172.2,276 175,277.2 177.8,278.5 180.5,279.8 183.2,281.1 185.8,282.5 188.3,284 
	190.8,285.5 193.2,287 195.5,288.6 197.8,290.2 200,291.9 202.2,293.6 204.3,295.4 206.3,297.3 208.3,299.1 210.2,301 212.1,303 
	213.8,305 215.6,307.1 217.2,309.2 218.8,311.4 220.4,313.6 221.9,315.8 223.3,318.1 224.6,320.5 225.9,322.9 227.2,325.3 
	228.3,327.8 229.4,330.3 230.5,332.9 231.5,335.6 232.4,338.2 233.2,341 234,343.7 234.8,346.6 235.4,349.4 236.1,352.3 
	236.6,355.3 237.1,358.3 237.5,361.4 237.9,364.5 238.2,367.6 238.4,370.8 238.6,374.1 238.7,377.4 238.8,380.7 238.8,384.1 
	238.7,387.6 238.6,391.1 238.4,394.6 238.1,398.2 237.8,401.8 237.4,405.5 237,409.2 236.5,413 235.9,416.8 235.3,420.7 
	234.6,424.6 233.8,428.5 233,432.5 232.1,436.6 235.4,437.3 238.8,437.9 242.1,438.5 245.4,439 248.8,439.4 252.2,439.8 
	255.5,440.1 258.9,440.4 262.3,440.5 265.7,440.6 269,440.7 272.4,440.7 275.8,440.6 279.2,440.4 282.6,440.2 285.9,439.9 
	289.3,439.5 292.6,439.1 296,438.6 299.3,438 302.7,437.4 "/>
<polyline class="st3" points="269,437 269,433.3 268.9,429.6 268.7,426 268.6,422.4 268.4,418.9 268.1,415.3 267.8,411.8 
	267.5,408.4 267.1,404.9 266.7,401.5 266.3,398.1 265.8,394.8 265.3,391.5 264.7,388.2 264.1,384.9 263.5,381.7 262.8,378.5 
	262.1,375.3 261.3,372.2 260.5,369.1 259.7,366 258.8,362.9 257.9,359.9 257,356.9 256,354 254.9,351 253.9,348.1 252.8,345.3 
	251.6,342.4 250.4,339.6 249.2,336.8 247.9,334.1 246.6,331.4 245.3,328.7 243.9,326 242.5,323.4 241,320.8 239.5,318.2 238,315.7 
	236.4,313.2 234.8,310.7 233.1,308.2 231.4,305.8 229.7,303.4 227.9,301.1 226.1,298.7 224.2,296.4 222.3,294.2 220.4,291.9 
	218.4,289.7 216.4,287.5 214.4,285.4 212.3,283.2 210.1,281.2 208,279.1 205.8,277.1 203.5,275.1 201.2,273.1 198.9,271.1 
	196.6,269.2 194.2,267.4 191.7,265.5 189.2,263.7 186.7,261.9 184.1,260.1 181.6,258.4 178.9,256.7 176.2,255 173.5,253.4 
	170.8,251.8 168,250.2 165.1,248.6 162.3,247.1 159.4,245.6 156.4,244.2 153.4,242.7 150.4,241.3 147.3,240 144.2,238.6 
	141.1,237.3 137.9,236 134.7,234.8 131.4,233.6 128.1,232.4 124.7,231.2 121.4,230.1 117.9,229 114.5,227.9 111,226.9 107.4,225.8 
	103.9,224.9 "/>
<polygon class="st4" points="273.7,436 273.6,436.4 273.6,436.8 273.5,437.2 273.4,437.6 273.3,437.9 273.1,438.3 272.9,438.6 
	272.6,438.9 272.4,439.2 272.1,439.5 271.8,439.8 271.5,440 271.1,440.2 270.8,440.3 270.4,440.5 270,440.6 269.6,440.6 
	269.2,440.7 268.8,440.7 268.4,440.6 268.1,440.6 267.7,440.5 267.3,440.4 266.9,440.2 266.6,440 266.3,439.8 266,439.5 
	265.7,439.3 265.4,439 265.2,438.7 265,438.3 264.8,438 264.6,437.6 264.5,437.2 264.4,436.8 264.4,436.4 264.4,436.1 264.4,435.7 
	264.4,435.3 264.5,434.9 264.6,434.5 264.8,434.1 265,433.8 265.2,433.5 265.4,433.1 265.7,432.8 265.9,432.6 266.2,432.3 
	266.6,432.1 266.9,431.9 267.3,431.7 267.6,431.6 268,431.5 268.4,431.4 268.8,431.4 269.2,431.4 269.6,431.4 270,431.5 
	270.4,431.6 270.7,431.7 271.1,431.9 271.4,432.1 271.8,432.3 272.1,432.5 272.4,432.8 272.6,433.1 272.9,433.4 273.1,433.8 
	273.2,434.1 273.4,434.5 273.5,434.9 273.6,435.2 273.6,435.6 "/>
<polygon class="st5" points="273.7,436 273.6,436.4 273.6,436.8 273.5,437.2 273.4,437.6 273.3,437.9 273.1,438.3 272.9,438.6 
	272.6,438.9 272.4,439.2 272.1,439.5 271.8,439.8 271.5,440 271.1,440.2 270.8,440.3 270.4,440.5 270,440.6 269.6,440.6 
	269.2,440.7 268.8,440.7 268.4,440.6 268.1,440.6 267.7,440.5 267.3,440.4 266.9,440.2 266.6,440 266.3,439.8 266,439.5 
	265.7,439.3 265.4,439 265.2,438.7 265,438.3 264.8,438 264.6,437.6 264.5,437.2 264.4,436.8 264.4,436.4 264.4,436.1 264.4,435.7 
	264.4,435.3 264.5,434.9 264.6,434.5 264.8,434.1 265,433.8 265.2,433.5 265.4,433.1 265.7,432.8 265.9,432.6 266.2,432.3 
	266.6,432.1 266.9,431.9 267.3,431.7 267.6,431.6 268,431.5 268.4,431.4 268.8,431.4 269.2,431.4 269.6,431.4 270,431.5 
	270.4,431.6 270.7,431.7 271.1,431.9 271.4,432.1 271.8,432.3 272.1,432.5 272.4,432.8 272.6,433.1 272.9,433.4 273.1,433.8 
	273.2,434.1 273.4,434.5 273.5,434.9 273.6,435.2 273.6,435.6 "/>
<g>
	<path d="M469,320.2c0.5-2.1,1.5-3.5,2.9-4.4c1.4-0.9,3-1.1,4.8-0.6c1.2,0.3,2.1,0.9,2.9,1.6c0.8,0.8,1.3,1.7,1.5,2.9
		c0.2,1.1,0.2,2.3-0.2,3.5c-0.3,1.3-0.9,2.3-1.7,3.2c-0.8,0.9-1.7,1.4-2.8,1.7c-1.1,0.3-2.1,0.3-3.2,0c-1.2-0.3-2.1-0.9-2.9-1.7
		c-0.8-0.8-1.3-1.8-1.5-2.9C468.7,322.4,468.7,321.3,469,320.2z M470.7,320.7c-0.4,1.5-0.3,2.8,0.3,3.9c0.6,1.1,1.5,1.8,2.7,2.1
		c1.2,0.3,2.4,0.2,3.4-0.5c1-0.7,1.8-1.8,2.2-3.4c0.3-1,0.3-1.9,0.2-2.8c-0.1-0.8-0.5-1.6-1-2.2c-0.6-0.6-1.2-1-2.1-1.2
		c-1.2-0.3-2.3-0.2-3.3,0.4C472,317.6,471.2,318.8,470.7,320.7z"/>
	<path d="M480.4,333.4l3.3-12.5l1.4,0.4l-0.3,1.2c0.5-0.4,0.9-0.6,1.4-0.7c0.5-0.1,1-0.1,1.6,0.1c0.8,0.2,1.4,0.6,1.9,1.1
		c0.5,0.6,0.8,1.2,0.9,2c0.1,0.8,0,1.6-0.2,2.5c-0.2,0.9-0.6,1.7-1.2,2.4c-0.5,0.7-1.2,1.1-1.9,1.3c-0.7,0.2-1.5,0.2-2.1,0.1
		c-0.5-0.1-0.9-0.4-1.3-0.7s-0.6-0.7-0.8-1.1l-1.2,4.4L480.4,333.4z M483.8,325.9c-0.3,1.2-0.3,2.1,0,2.8c0.3,0.7,0.8,1.1,1.5,1.3
		c0.7,0.2,1.3,0,2-0.4c0.6-0.4,1.1-1.3,1.4-2.5c0.3-1.1,0.3-2.1,0-2.8c-0.3-0.7-0.8-1.1-1.5-1.3c-0.7-0.2-1.3,0-2,0.5
		C484.6,323.9,484.1,324.7,483.8,325.9z"/>
	<path d="M490.9,332.5l2.4-9l1.4,0.4l-0.4,1.4c0.5-0.5,1-0.9,1.3-1s0.7-0.1,1.1,0c0.5,0.1,1,0.4,1.4,0.9l-0.9,1.3
		c-0.3-0.3-0.7-0.5-1-0.6c-0.3-0.1-0.7-0.1-1,0.1c-0.3,0.1-0.6,0.4-0.8,0.7c-0.3,0.5-0.6,1.1-0.7,1.7l-1.3,4.7L490.9,332.5z"/>
	<path d="M497.2,334.2l2.4-9l1.4,0.4l-0.3,1.3c0.4-0.4,0.9-0.6,1.4-0.8s1.1-0.1,1.7,0c0.7,0.2,1.2,0.5,1.5,0.9
		c0.4,0.4,0.6,0.9,0.6,1.4c1-0.9,2.1-1.1,3.2-0.8c0.9,0.2,1.5,0.7,1.9,1.3c0.4,0.6,0.4,1.4,0.1,2.5l-1.6,6.2l-1.5-0.4l1.5-5.7
		c0.2-0.6,0.2-1.1,0.2-1.4c0-0.3-0.2-0.6-0.4-0.8c-0.2-0.2-0.5-0.4-0.9-0.5c-0.6-0.2-1.2-0.1-1.7,0.2c-0.5,0.3-0.9,0.9-1.2,1.9
		L504,336l-1.5-0.4l1.6-5.9c0.2-0.7,0.2-1.2,0-1.6c-0.2-0.4-0.5-0.7-1.1-0.8c-0.4-0.1-0.9-0.1-1.3,0c-0.4,0.1-0.8,0.4-1.1,0.8
		c-0.3,0.4-0.5,1-0.7,1.8l-1.2,4.7L497.2,334.2z"/>
	<path d="M517,339.4l-1.5-0.4l2.6-9.7c-0.5,0.3-1,0.5-1.7,0.7c-0.7,0.2-1.3,0.3-1.8,0.4l0.4-1.5c1-0.2,1.8-0.5,2.6-0.9
		c0.8-0.4,1.4-0.8,1.8-1.3l1,0.3L517,339.4z"/>
</g>
<polyline class="st12" points="464.2,277.5 464.1,279.9 464,282.3 463.8,284.8 463.6,287.2 463.3,289.6 463.1,292 462.8,294.4 
	462.5,296.8 462.1,299.2 461.7,301.6 461.3,303.9 460.9,306.3 460.4,308.7 459.9,311.1 459.4,313.4 458.8,315.8 458.2,318.1 
	457.6,320.5 456.9,322.8 456.3,325.1 455.5,327.4 454.8,329.8 454,332 453.3,334.3 452.4,336.6 451.6,338.9 450.7,341.1 
	449.8,343.4 448.9,345.6 447.9,347.8 446.9,350 445.9,352.2 444.9,354.4 443.8,356.6 442.7,358.8 "/>
<line class="st12" x1="464.2" y1="277.5" x2="501.5" y2="279.1"/>
<line class="st12" x1="442.7" y1="358.8" x2="475.9" y2="375.9"/>
<g>
	<path d="M425,405.2l8.3-9.9l3.4,2.8c0.8,0.6,1.3,1.2,1.6,1.6c0.5,0.6,0.7,1.2,0.9,1.9c0.2,0.9,0.1,1.8-0.2,2.7
		c-0.3,0.9-0.8,1.8-1.6,2.7c-0.6,0.8-1.3,1.3-1.9,1.8c-0.7,0.4-1.3,0.7-1.9,0.9c-0.6,0.2-1.1,0.2-1.7,0.1c-0.5-0.1-1-0.2-1.6-0.5
		c-0.6-0.3-1.1-0.7-1.7-1.2L425,405.2z M427.3,405.2l2.1,1.8c0.7,0.5,1.2,0.9,1.7,1.1c0.5,0.2,0.9,0.3,1.3,0.2
		c0.6-0.1,1.2-0.3,1.8-0.6c0.6-0.4,1.2-0.9,1.9-1.7c0.9-1,1.4-2,1.5-2.8c0.1-0.8,0-1.6-0.3-2.1c-0.2-0.4-0.7-1-1.5-1.6l-2.1-1.7
		L427.3,405.2z"/>
	<path d="M441.7,414.7l1.1,1.2c-0.8,0.7-1.7,1.1-2.6,1.1c-0.9,0-1.8-0.3-2.6-1c-1-0.8-1.5-1.8-1.6-2.9c-0.1-1.1,0.4-2.3,1.4-3.5
		c0.6-0.8,1.3-1.3,2.1-1.7s1.5-0.5,2.3-0.3c0.8,0.1,1.5,0.5,2.1,1c0.8,0.7,1.2,1.4,1.4,2.2c0.2,0.8,0,1.6-0.5,2.5l-1.3-0.8
		c0.3-0.6,0.4-1.1,0.3-1.6c-0.1-0.5-0.3-0.9-0.7-1.2c-0.6-0.5-1.3-0.7-2-0.6c-0.7,0.1-1.5,0.7-2.3,1.6c-0.8,1-1.2,1.8-1.2,2.6
		c0,0.7,0.3,1.4,0.9,1.9c0.5,0.4,1,0.6,1.6,0.6S441.1,415.3,441.7,414.7z"/>
	<path d="M448.6,420.5l1.1,1.2c-0.8,0.7-1.7,1.1-2.6,1.1c-0.9,0-1.8-0.3-2.6-1c-1-0.8-1.5-1.8-1.6-2.9c-0.1-1.1,0.4-2.3,1.4-3.5
		c0.6-0.8,1.3-1.3,2.1-1.7c0.7-0.4,1.5-0.5,2.3-0.3c0.8,0.2,1.5,0.5,2.1,1c0.8,0.7,1.2,1.4,1.4,2.2s0,1.6-0.5,2.5l-1.3-0.8
		c0.3-0.6,0.4-1.1,0.3-1.6c-0.1-0.5-0.3-0.9-0.7-1.2c-0.6-0.5-1.3-0.7-2-0.6c-0.7,0.1-1.5,0.7-2.3,1.6c-0.8,1-1.2,1.8-1.2,2.6
		c0,0.7,0.3,1.4,0.9,1.9c0.5,0.4,1,0.6,1.6,0.6C447.4,421.3,448,421,448.6,420.5z"/>
</g>
<polyline class="st12" points="442.4,359.4 441.3,361.5 440.1,363.6 438.9,365.7 437.7,367.8 436.5,369.9 435.2,372 433.9,374 
	432.6,376.1 431.3,378.1 429.9,380.1 428.5,382.1 427.1,384 425.7,386 424.2,387.9 422.7,389.8 421.2,391.7 419.7,393.6 
	418.1,395.5 416.6,397.3 415,399.1 413.3,400.9 411.7,402.7 410,404.4 408.3,406.2 406.6,407.9 404.9,409.6 403.2,411.3 
	401.4,412.9 399.6,414.5 397.8,416.1 395.9,417.7 394.1,419.3 392.2,420.8 390.3,422.3 388.4,423.8 "/>
<line class="st12" x1="442.4" y1="359.4" x2="475.5" y2="376.6"/>
<line class="st12" x1="388.4" y1="423.8" x2="411.2" y2="453.4"/>
<g>
	<path d="M360.7,464.8l0.3,1.7c-1.4,0.3-2.7,0.1-3.7-0.4c-1.1-0.5-1.9-1.4-2.4-2.6c-0.6-1.3-0.8-2.4-0.7-3.4c0.1-1,0.6-2,1.4-2.8
		c0.8-0.9,1.7-1.6,2.8-2.1c1.2-0.6,2.4-0.8,3.5-0.8c1.1,0,2.1,0.4,3,1c0.9,0.6,1.5,1.5,2,2.5c0.5,1.2,0.7,2.3,0.5,3.4
		c-0.2,1.1-0.8,2-1.7,2.8l-1.1-1.4c0.7-0.7,1.2-1.3,1.3-2s0-1.4-0.3-2.2c-0.4-0.9-1-1.5-1.7-1.9c-0.7-0.4-1.5-0.6-2.3-0.5
		c-0.8,0.1-1.6,0.3-2.4,0.7c-1,0.5-1.8,1-2.4,1.6c-0.6,0.6-0.9,1.3-1,2.1s0,1.5,0.4,2.2c0.4,0.9,1,1.5,1.8,1.8
		C358.7,465,359.6,465.1,360.7,464.8z"/>
	<path d="M360.7,475.5l1.1-0.5c-1.1-0.1-1.9-0.7-2.4-1.8c-0.3-0.7-0.4-1.4-0.3-2.1c0.1-0.7,0.4-1.4,0.9-2c0.5-0.6,1.2-1.1,2.1-1.5
		c0.8-0.4,1.7-0.6,2.5-0.6c0.8,0,1.5,0.1,2.2,0.5c0.6,0.4,1.1,0.9,1.4,1.6c0.2,0.5,0.3,1,0.3,1.5c0,0.5-0.2,1-0.4,1.4l4.2-2l0.7,1.4
		l-11.7,5.4L360.7,475.5z M362.8,469c-1.1,0.5-1.8,1.1-2.1,1.8c-0.3,0.7-0.3,1.4-0.1,2c0.3,0.6,0.8,1,1.5,1.2
		c0.7,0.2,1.6,0.1,2.7-0.4c1.2-0.5,1.9-1.2,2.2-1.9c0.3-0.7,0.3-1.4,0-2c-0.3-0.6-0.8-1-1.5-1.2C364.8,468.3,363.9,468.5,362.8,469z
		"/>
	<path d="M364.3,483.3l2.8-1.3l-2.4-5.1l1.3-0.6l10.1,1.8l0.5,1.2l-7.6,3.5l0.7,1.6l-1.3,0.6l-0.7-1.6l-2.8,1.3L364.3,483.3z
		 M368.4,481.4l5.3-2.5l-7-1.2L368.4,481.4z"/>
	<path d="M368.5,492.4l2.8-1.3l-2.4-5.1l1.3-0.6l10.1,1.8l0.5,1.2l-7.6,3.5l0.7,1.6l-1.3,0.6l-0.7-1.6l-2.8,1.3L368.5,492.4z
		 M372.6,490.4l5.3-2.5l-7-1.2L372.6,490.4z"/>
</g>
<polyline class="st12" points="387.9,424.2 386,425.7 384,427.1 382,428.5 380.1,429.9 378.1,431.3 376,432.6 374,433.9 372,435.2 
	369.9,436.5 367.8,437.7 365.7,438.9 363.6,440.1 361.5,441.3 359.3,442.4 357.2,443.5 355,444.6 352.8,445.6 350.6,446.7 
	348.4,447.6 346.2,448.6 344,449.6 341.7,450.5 339.5,451.4 337.2,452.2 334.9,453 332.7,453.8 330.4,454.6 328.1,455.4 
	325.7,456.1 323.4,456.8 321.1,457.4 318.8,458 316.4,458.6 314.1,459.2 311.7,459.7 "/>
<line class="st12" x1="387.9" y1="424.2" x2="410.6" y2="453.9"/>
<line class="st12" x1="311.7" y1="459.7" x2="319.8" y2="496.2"/>
<g>
	<path d="M217,528.1l-11.5-7.6l0.4-1.8l13.7-2.3l-0.4,1.9l-4.1,0.6l-1.2,5.3l3.5,2.2L217,528.1z M212.7,523.4l1-4.3l-3.8,0.5
		c-1.1,0.2-2.1,0.3-2.8,0.3c0.8,0.3,1.5,0.7,2.3,1.2L212.7,523.4z"/>
	<path d="M221.2,509.3l-1.1-0.3c0.8,0.8,1,1.7,0.8,2.9c-0.2,0.7-0.5,1.3-1,1.9c-0.5,0.5-1.2,0.9-2,1c-0.8,0.2-1.7,0.2-2.6,0
		c-0.9-0.2-1.7-0.5-2.4-1c-0.7-0.5-1.1-1-1.4-1.7c-0.3-0.7-0.3-1.4-0.1-2.2c0.1-0.5,0.3-1,0.7-1.4c0.3-0.4,0.7-0.7,1.1-0.8l-4.5-1
		l0.3-1.5l12.6,2.8L221.2,509.3z M215.6,513.2c1.2,0.3,2.1,0.2,2.8-0.2c0.7-0.4,1.1-0.9,1.3-1.5c0.2-0.7,0-1.3-0.4-1.9
		c-0.4-0.6-1.2-1-2.4-1.3c-1.2-0.3-2.2-0.2-2.9,0.1c-0.7,0.3-1.1,0.9-1.3,1.6c-0.2,0.7,0,1.3,0.5,1.9
		C213.5,512.5,214.4,512.9,215.6,513.2z"/>
	<path d="M220.1,498.8l0.5-1.5c1,0.4,1.7,1,2.2,1.8c0.4,0.8,0.5,1.7,0.3,2.7c-0.3,1.2-0.9,2.2-1.9,2.7c-1,0.6-2.2,0.7-3.8,0.4
		c-1-0.2-1.8-0.6-2.5-1.1c-0.7-0.5-1.1-1.1-1.3-1.9c-0.2-0.7-0.2-1.5-0.1-2.3c0.2-1,0.7-1.7,1.3-2.3c0.6-0.5,1.4-0.8,2.4-0.7
		l-0.1,1.6c-0.6,0-1.2,0.2-1.6,0.5c-0.4,0.3-0.6,0.7-0.8,1.2c-0.2,0.8,0,1.5,0.4,2.1c0.4,0.6,1.3,1,2.5,1.3c1.2,0.3,2.2,0.2,2.8-0.1
		s1.1-0.9,1.2-1.7c0.1-0.6,0.1-1.2-0.2-1.6C221.3,499.5,220.8,499.1,220.1,498.8z"/>
	<path d="M227.5,497.5l-1.5-0.2c0.2-0.3,0.3-0.6,0.3-0.9c0.1-0.3,0.1-0.6,0-0.9c-0.1-0.2-0.2-0.4-0.4-0.6c-0.1-0.1-0.5-0.4-1-0.7
		c-0.1,0-0.2-0.1-0.3-0.2l-9.9,1.4l0.4-1.7l5.7-0.7c0.7-0.1,1.5-0.2,2.3-0.2c-0.7-0.3-1.3-0.7-1.9-1.1l-4.9-3.1l0.3-1.5l8.5,5.5
		c0.9,0.6,1.5,1,1.9,1.3c0.4,0.4,0.8,0.8,0.9,1.2c0.2,0.4,0.2,0.9,0.1,1.3C227.9,496.9,227.7,497.2,227.5,497.5z"/>
	<path d="M219.6,484.4c-0.4,0.6-0.8,1-1.3,1.2c-0.5,0.2-1.1,0.3-1.7,0.1c-0.9-0.2-1.6-0.7-2.1-1.5c-0.5-0.8-0.6-1.7-0.3-2.8
		c0.2-1.1,0.8-1.9,1.5-2.4c0.8-0.5,1.6-0.7,2.6-0.5c0.6,0.1,1.1,0.4,1.4,0.8c0.4,0.4,0.6,0.9,0.7,1.6c0.4-0.7,1-1.2,1.6-1.5
		c0.7-0.3,1.4-0.3,2.1-0.2c1.1,0.2,1.9,0.8,2.5,1.7c0.6,0.9,0.7,2,0.4,3.2c-0.3,1.2-0.9,2.2-1.8,2.8c-0.9,0.6-1.9,0.8-3,0.5
		c-0.8-0.2-1.5-0.5-1.9-1.1C219.9,485.9,219.6,485.3,219.6,484.4z M216.9,484.2c0.6,0.1,1.1,0,1.6-0.3s0.8-0.8,0.9-1.4
		c0.1-0.6,0.1-1.1-0.2-1.6s-0.7-0.8-1.3-0.9c-0.6-0.1-1.1,0-1.6,0.3c-0.5,0.3-0.8,0.8-0.9,1.3c-0.1,0.6-0.1,1.1,0.2,1.6
		C216,483.8,216.4,484,216.9,484.2z M222.6,486c0.4,0.1,0.9,0.1,1.3,0s0.8-0.4,1.2-0.7c0.3-0.4,0.5-0.8,0.6-1.3
		c0.2-0.7,0.1-1.4-0.3-2c-0.4-0.6-0.9-1-1.7-1.1c-0.7-0.2-1.4-0.1-2,0.3c-0.6,0.4-1,1-1.1,1.7c-0.2,0.7-0.1,1.4,0.3,2
		C221.3,485.4,221.9,485.8,222.6,486z"/>
</g>
<polyline class="st12" points="311,459.9 308.7,460.4 306.3,460.9 303.9,461.3 301.5,461.7 299.1,462.1 296.7,462.5 294.3,462.8 
	291.9,463.1 289.5,463.4 287.1,463.6 284.7,463.8 282.3,464 279.9,464.1 277.5,464.2 275,464.3 272.6,464.4 270.2,464.4 
	267.8,464.4 265.4,464.4 262.9,464.3 260.5,464.2 258.1,464.1 255.7,463.9 253.3,463.7 250.9,463.5 248.5,463.3 246.1,463 
	243.7,462.7 241.3,462.4 238.9,462 236.5,461.6 234.1,461.2 231.7,460.7 229.3,460.3 227,459.7 224.6,459.2 222.3,458.6 219.9,458 
	217.6,457.4 215.2,456.8 212.9,456.1 210.6,455.4 208.3,454.6 206,453.8 203.7,453 201.5,452.2 199.2,451.4 196.9,450.5 
	194.7,449.6 192.5,448.6 190.2,447.6 188,446.7 185.8,445.6 183.7,444.6 181.5,443.5 179.3,442.4 177.2,441.3 175.1,440.1 
	173,438.9 170.9,437.7 168.8,436.5 166.7,435.2 164.7,433.9 162.6,432.6 160.6,431.3 158.6,429.9 156.6,428.5 154.7,427.1 
	152.7,425.7 150.8,424.2 "/>
<line class="st12" x1="311" y1="459.9" x2="319" y2="496.3"/>
<line class="st12" x1="150.8" y1="424.2" x2="128.1" y2="453.9"/>
<g>
	<path d="M76.9,430l-1-1.2l4.2-3.5l3.1,3.7c-0.2,1-0.6,2-1,2.8s-1.1,1.5-1.8,2.1c-1,0.8-2,1.3-3.2,1.6c-1.1,0.3-2.2,0.1-3.3-0.3
		s-2-1.2-2.8-2.1c-0.8-1-1.4-2-1.7-3.2c-0.3-1.2-0.2-2.3,0.2-3.3c0.4-1,1.1-2,2.1-2.8c0.7-0.6,1.5-1,2.2-1.3
		c0.8-0.3,1.5-0.3,2.2-0.2c0.7,0.1,1.4,0.5,2.1,1l-0.9,1.3c-0.6-0.4-1.1-0.6-1.5-0.7c-0.5-0.1-1-0.1-1.5,0.1s-1.1,0.5-1.6,0.9
		c-0.6,0.5-1,1-1.3,1.6s-0.4,1.1-0.5,1.6c0,0.5,0,1,0.2,1.5c0.3,0.8,0.7,1.6,1.3,2.3c0.7,0.9,1.5,1.5,2.3,1.8
		c0.8,0.3,1.6,0.4,2.4,0.2c0.8-0.2,1.6-0.6,2.2-1.1c0.6-0.5,1-1,1.4-1.7c0.4-0.7,0.6-1.2,0.6-1.7l-1.5-1.8L76.9,430z"/>
	<path d="M86.1,428.9l-6-7.2l1.1-0.9l0.9,1.1c-0.1-0.7-0.2-1.3-0.1-1.7s0.3-0.7,0.6-0.9c0.4-0.3,0.9-0.6,1.6-0.7l0.5,1.5
		c-0.4,0.1-0.8,0.2-1.1,0.5c-0.3,0.2-0.4,0.5-0.5,0.8c-0.1,0.3,0,0.7,0.1,1c0.2,0.5,0.6,1.1,1,1.6l3.1,3.7L86.1,428.9z"/>
	<path d="M91,424.7l-6-7.2l1.1-0.9l0.8,1c-0.1-0.5,0-1.1,0.2-1.6c0.2-0.5,0.5-1,1-1.4c0.5-0.4,1.1-0.7,1.6-0.8c0.5-0.1,1,0,1.5,0.3
		c-0.1-1.3,0.3-2.3,1.2-3.1c0.7-0.6,1.4-0.9,2.1-0.8c0.7,0.1,1.4,0.5,2.1,1.3l4.1,4.9l-1.2,1l-3.8-4.5c-0.4-0.5-0.7-0.8-1-0.9
		c-0.3-0.1-0.5-0.2-0.9-0.2c-0.3,0-0.6,0.2-0.9,0.4c-0.5,0.4-0.8,0.9-0.8,1.6c-0.1,0.6,0.2,1.3,0.8,2l3.5,4.2l-1.2,1l-3.9-4.7
		c-0.5-0.5-0.9-0.9-1.3-1s-0.9,0-1.3,0.4c-0.3,0.3-0.6,0.6-0.7,1.1c-0.1,0.4-0.1,0.9,0,1.3c0.2,0.5,0.5,1,1.1,1.7l3.1,3.7L91,424.7z
		"/>
	<path d="M106.1,412.1l-2-2.4l-4.3,3.6l-0.9-1.1L98,402.1l1-0.8l5.4,6.4l1.3-1.1l0.9,1.1l-1.3,1.1l2,2.4L106.1,412.1z M103.2,408.7
		l-3.7-4.5l0.6,7L103.2,408.7z"/>
</g>
<polyline class="st12" points="150.2,423.8 148.3,422.3 146.4,420.8 144.6,419.3 142.7,417.7 140.9,416.1 139.1,414.5 137.3,412.9 
	135.5,411.3 133.8,409.6 132,407.9 130.3,406.2 128.6,404.4 127,402.7 125.3,400.9 123.7,399.1 122.1,397.3 120.5,395.5 119,393.6 
	117.4,391.7 115.9,389.8 114.5,387.9 113,386 111.6,384 110.1,382.1 108.8,380.1 107.4,378.1 106.1,376.1 104.7,374 103.5,372 
	102.2,369.9 101,367.8 99.8,365.7 98.6,363.6 97.4,361.5 96.3,359.4 "/>
<line class="st12" x1="150.2" y1="423.8" x2="127.5" y2="453.4"/>
<line class="st12" x1="96.3" y1="359.4" x2="63.2" y2="376.6"/>
<g>
	<path d="M5.4,341.5l1.5-0.5c0.2,0.6,0.5,1.1,0.9,1.4c0.4,0.3,0.9,0.5,1.5,0.6c0.6,0.1,1.3,0.1,2-0.1c0.6-0.2,1.2-0.4,1.6-0.7
		c0.4-0.3,0.7-0.7,0.9-1.1s0.2-0.8,0.1-1.2c-0.1-0.4-0.3-0.7-0.6-0.9s-0.7-0.4-1.3-0.4c-0.4,0-1.2,0-2.4,0c-1.2,0-2.1,0-2.6-0.1
		c-0.7-0.2-1.2-0.4-1.6-0.8c-0.4-0.4-0.7-0.9-0.8-1.4c-0.2-0.6-0.1-1.3,0.1-1.9c0.2-0.6,0.6-1.2,1.2-1.7s1.3-0.8,2.2-1
		c0.9-0.2,1.8-0.3,2.6-0.2c0.8,0.1,1.4,0.4,2,0.9c0.5,0.5,0.9,1.1,1.1,1.8l-1.5,0.5c-0.3-0.8-0.7-1.3-1.3-1.6
		c-0.6-0.3-1.4-0.3-2.3,0c-1,0.3-1.7,0.6-2,1.1c-0.4,0.5-0.5,1-0.3,1.5c0.1,0.4,0.4,0.8,0.8,1c0.4,0.2,1.3,0.3,2.7,0.2s2.4,0,3,0.1
		c0.8,0.1,1.5,0.4,1.9,0.8c0.5,0.4,0.8,1,1,1.6c0.2,0.7,0.2,1.3-0.1,2c-0.2,0.7-0.6,1.3-1.3,1.8s-1.4,0.9-2.3,1.1
		c-1.1,0.3-2.1,0.4-3,0.3s-1.6-0.5-2.2-1C6.1,343,5.6,342.3,5.4,341.5z"/>
	<path d="M18.4,342.3l-3.3-12.5l1.5-0.4l3.3,12.5L18.4,342.3z"/>
	<path d="M27.3,336.4l1.6-0.2c0.1,1.1-0.1,2-0.6,2.8c-0.5,0.8-1.3,1.3-2.3,1.5c-1.2,0.3-2.3,0.2-3.3-0.4c-1-0.6-1.6-1.7-2-3.2
		c-0.3-1-0.3-1.9-0.2-2.7c0.1-0.8,0.5-1.5,1-2c0.6-0.5,1.2-0.9,2-1.1c1-0.3,1.8-0.2,2.6,0.1c0.8,0.3,1.3,0.9,1.8,1.8l-1.4,0.6
		c-0.3-0.6-0.7-1-1.1-1.2c-0.4-0.2-0.9-0.2-1.4-0.1c-0.8,0.2-1.3,0.6-1.7,1.3c-0.3,0.7-0.3,1.6,0,2.8c0.3,1.2,0.8,2,1.4,2.5
		c0.6,0.4,1.3,0.5,2,0.3c0.6-0.2,1.1-0.5,1.4-1S27.4,337.2,27.3,336.4z"/>
	<path d="M36.3,337.6l-1.5,0.4l-2.6-9.7c-0.3,0.4-0.7,0.9-1.2,1.4c-0.5,0.5-1,0.9-1.4,1.2l-0.4-1.5c0.7-0.6,1.4-1.3,1.9-2.1
		c0.5-0.7,0.8-1.4,0.9-2l1-0.3L36.3,337.6z"/>
	<path d="M45.7,325l-1.5,0.5c-0.3-0.6-0.6-1-0.9-1.2c-0.5-0.3-1.1-0.4-1.7-0.2c-0.5,0.1-0.9,0.4-1.2,0.7c-0.4,0.5-0.6,1.1-0.7,1.8
		c-0.1,0.7,0,1.7,0.3,3c0.2-0.7,0.6-1.2,1-1.6c0.5-0.4,1-0.7,1.6-0.9c1-0.3,2-0.1,2.9,0.4c0.9,0.6,1.5,1.4,1.8,2.6
		c0.2,0.8,0.2,1.6,0.1,2.3c-0.2,0.8-0.5,1.4-1,1.9c-0.5,0.5-1.1,0.9-1.9,1.1c-1.3,0.3-2.4,0.1-3.5-0.6c-1.1-0.7-1.9-2.2-2.4-4.3
		c-0.6-2.4-0.7-4.3-0.1-5.6c0.5-1.2,1.4-1.9,2.8-2.3c1-0.3,1.9-0.2,2.6,0.2S45.3,324.1,45.7,325z M40.9,332c0.1,0.5,0.4,1,0.7,1.4
		c0.4,0.4,0.8,0.7,1.2,0.9c0.5,0.1,0.9,0.2,1.4,0c0.6-0.2,1.1-0.6,1.5-1.2c0.3-0.6,0.4-1.4,0.1-2.3c-0.2-0.9-0.6-1.5-1.2-1.9
		c-0.6-0.4-1.2-0.5-1.9-0.3c-0.7,0.2-1.2,0.6-1.6,1.2C40.7,330.5,40.7,331.2,40.9,332z"/>
	<path d="M56,331.2c-0.4,0.6-0.9,1.1-1.4,1.5s-1,0.6-1.6,0.7c-1,0.3-1.8,0.2-2.5-0.1c-0.7-0.3-1.1-0.9-1.3-1.6
		c-0.1-0.4-0.1-0.9,0-1.3c0.1-0.4,0.3-0.8,0.6-1.1c0.3-0.3,0.6-0.6,1-0.8c0.3-0.2,0.7-0.4,1.3-0.6c1.2-0.5,2.1-0.9,2.6-1.2
		c0-0.2-0.1-0.3-0.1-0.4c-0.2-0.6-0.4-1-0.8-1.2c-0.5-0.2-1.1-0.3-1.9-0.1c-0.7,0.2-1.2,0.5-1.5,0.8c-0.3,0.3-0.4,0.9-0.4,1.5
		l-1.5,0.2c0-0.7,0.1-1.3,0.3-1.7c0.2-0.5,0.6-0.9,1.1-1.3c0.5-0.4,1.2-0.7,2-0.9c0.8-0.2,1.4-0.3,1.9-0.2s0.9,0.2,1.2,0.4
		c0.3,0.2,0.5,0.5,0.8,0.9c0.1,0.2,0.3,0.7,0.5,1.4l0.5,2c0.4,1.4,0.6,2.3,0.8,2.7c0.2,0.4,0.4,0.7,0.7,1l-1.6,0.4
		C56.3,331.9,56.1,331.6,56,331.2z M54.9,327.8c-0.5,0.4-1.3,0.8-2.3,1.2c-0.6,0.3-1,0.5-1.3,0.7c-0.2,0.2-0.4,0.4-0.5,0.7
		s-0.1,0.5,0,0.8c0.1,0.4,0.4,0.7,0.7,0.9c0.4,0.2,0.9,0.2,1.5,0c0.6-0.2,1.1-0.4,1.5-0.8c0.4-0.4,0.6-0.8,0.7-1.3
		c0.1-0.4,0-0.9-0.2-1.6L54.9,327.8z"/>
	<path d="M56.8,320.5l-0.4-1.5l8.1-2.1l0.3,1.2c-0.6,1.1-1.1,2.4-1.5,4c-0.4,1.6-0.6,3.2-0.7,4.8c0,1.1,0.1,2.3,0.3,3.6l-1.6,0.4
		c-0.2-1-0.4-2.2-0.4-3.7c0-1.5,0.2-3,0.5-4.4c0.3-1.5,0.8-2.8,1.3-3.8L56.8,320.5z"/>
</g>
<polyline class="st12" points="96,358.8 94.9,356.6 93.8,354.4 92.8,352.2 91.7,350 90.8,347.8 89.8,345.6 88.9,343.4 88,341.1 
	87.1,338.9 86.2,336.6 85.4,334.3 84.6,332 83.9,329.8 83.1,327.4 82.4,325.1 81.7,322.8 81.1,320.5 80.5,318.1 79.9,315.8 
	79.3,313.4 78.8,311.1 78.3,308.7 77.8,306.3 77.4,303.9 76.9,301.6 76.6,299.2 76.2,296.8 75.9,294.4 75.6,292 75.3,289.6 
	75.1,287.2 74.9,284.8 74.7,282.3 74.6,279.9 74.4,277.5 "/>
<line class="st12" x1="96" y1="358.8" x2="62.8" y2="375.9"/>
<line class="st12" x1="74.4" y1="277.5" x2="37.2" y2="279.1"/>
<g>
	<path d="M74.2,105.4l1,1.4c-1.2,0.8-2.4,1.3-3.5,1.2c-1.2,0-2.3-0.5-3.3-1.3c-1.1-0.9-1.8-1.8-2.1-2.8s-0.3-2,0.1-3.2
		c0.3-1.1,0.9-2.1,1.7-3.1c0.9-1,1.8-1.8,2.8-2.2c1-0.4,2.1-0.5,3.1-0.3c1.1,0.2,2,0.7,2.9,1.4c1,0.8,1.6,1.8,1.9,2.8
		c0.3,1.1,0.1,2.2-0.4,3.3l-1.5-0.8c0.4-0.9,0.5-1.7,0.3-2.4c-0.2-0.7-0.6-1.3-1.2-1.9c-0.8-0.6-1.5-1-2.4-1
		c-0.8-0.1-1.6,0.1-2.3,0.6c-0.7,0.4-1.4,1-1.9,1.6c-0.7,0.8-1.2,1.7-1.5,2.5s-0.3,1.6,0,2.4c0.3,0.7,0.7,1.4,1.3,1.9
		c0.7,0.6,1.5,0.9,2.4,0.9C72.5,106.4,73.3,106.1,74.2,105.4z"/>
	<path d="M79.5,114.2c-0.8,0-1.4-0.1-2-0.3c-0.5-0.2-1.1-0.5-1.5-0.9c-0.8-0.7-1.2-1.4-1.3-2.1c-0.1-0.7,0.1-1.4,0.6-2
		c0.3-0.3,0.6-0.6,1-0.8s0.8-0.2,1.2-0.2c0.4,0,0.8,0.2,1.2,0.3c0.3,0.1,0.7,0.4,1.2,0.7c1.1,0.7,1.9,1.2,2.5,1.4
		c0.1-0.2,0.2-0.3,0.3-0.3c0.4-0.5,0.6-0.9,0.5-1.3c-0.1-0.5-0.4-1.1-1-1.6c-0.6-0.5-1.1-0.7-1.5-0.8c-0.4,0-0.9,0.2-1.5,0.6
		l-1.1-1.2c0.5-0.4,1.1-0.7,1.6-0.8c0.5-0.1,1.1,0,1.7,0.2s1.2,0.6,1.8,1.1c0.6,0.5,1,1,1.3,1.5c0.3,0.5,0.4,0.9,0.4,1.2
		c0,0.4-0.1,0.8-0.3,1.1c-0.1,0.2-0.4,0.6-0.9,1.2l-1.4,1.6c-0.9,1.1-1.5,1.9-1.7,2.2c-0.2,0.3-0.3,0.7-0.4,1.1l-1.3-1.1
		C79.1,114.9,79.2,114.6,79.5,114.2z M81.6,111.4c-0.6-0.2-1.4-0.6-2.4-1.2c-0.6-0.3-1-0.6-1.3-0.6c-0.3-0.1-0.6-0.1-0.8,0
		s-0.5,0.2-0.7,0.4c-0.3,0.3-0.4,0.7-0.3,1.1c0.1,0.4,0.3,0.8,0.8,1.2c0.5,0.4,1,0.6,1.5,0.7c0.5,0.1,1,0,1.5-0.2
		c0.4-0.2,0.8-0.5,1.2-1.1L81.6,111.4z"/>
	<path d="M81.7,117.6l8.3-9.9l1.2,1l-8.3,9.9L81.7,117.6z"/>
	<path d="M84.8,120.2l6-7.2l1.1,0.9l-0.8,1c0.5-0.2,1.1-0.2,1.6-0.1c0.6,0.1,1.1,0.3,1.5,0.7c0.5,0.4,0.9,0.9,1,1.4
		c0.2,0.5,0.1,1-0.1,1.5c1.3-0.4,2.4-0.2,3.3,0.6c0.7,0.6,1.1,1.2,1.1,2c0.1,0.7-0.3,1.5-0.9,2.3l-4.1,4.9l-1.2-1l3.8-4.5
		c0.4-0.5,0.7-0.9,0.8-1.1s0.1-0.6,0-0.9c-0.1-0.3-0.3-0.6-0.6-0.8c-0.5-0.4-1.1-0.6-1.7-0.5s-1.2,0.5-1.8,1.2l-3.5,4.2l-1.2-1
		l3.9-4.7c0.5-0.5,0.7-1,0.7-1.5s-0.2-0.8-0.6-1.2c-0.3-0.3-0.7-0.5-1.2-0.5c-0.4-0.1-0.9,0-1.3,0.3s-0.9,0.7-1.4,1.3l-3.1,3.7
		L84.8,120.2z"/>
	<path d="M100.5,133.3l-1.2-1l6.5-7.7c-0.5,0-1.1,0-1.8-0.1c-0.7-0.1-1.3-0.3-1.8-0.4l1-1.2c0.9,0.2,1.9,0.4,2.7,0.3
		s1.6-0.2,2.2-0.4l0.8,0.7L100.5,133.3z"/>
</g>
<polyline class="st12" points="74.5,260.5 74.6,258 74.8,255.6 74.9,253.2 75.2,250.7 75.4,248.3 75.7,245.9 76,243.5 76.3,241 
	76.7,238.6 77.1,236.2 77.5,233.8 78,231.4 78.5,229 79,226.6 79.6,224.2 80.1,221.9 80.7,219.5 81.4,217.1 82.1,214.8 82.7,212.4 
	83.5,210.1 84.2,207.8 85,205.5 85.8,203.2 86.7,200.9 87.5,198.6 88.4,196.3 89.4,194.1 90.3,191.8 91.3,189.6 92.3,187.3 
	93.4,185.1 94.4,182.9 95.5,180.8 96.7,178.6 97.8,176.4 99,174.3 100.2,172.2 101.4,170 102.7,168 104,165.9 105.3,163.8 
	106.6,161.8 108,159.7 109.4,157.7 110.8,155.7 112.2,153.7 113.7,151.8 115.1,149.8 116.7,147.9 118.2,146 119.7,144.1 
	121.3,142.3 122.9,140.4 124.6,138.6 126.2,136.8 127.9,135 129.6,133.3 131.3,131.5 133,129.8 134.8,128.1 136.6,126.4 
	138.4,124.8 140.2,123.1 142,121.5 143.9,120 145.8,118.4 147.7,116.9 149.6,115.3 151.5,113.9 153.5,112.4 155.5,111 157.5,109.5 
	159.5,108.1 161.5,106.8 163.5,105.4 165.6,104.1 167.7,102.8 169.8,101.6 171.9,100.4 174,99.1 176.2,98 178.3,96.8 180.5,95.7 
	182.7,94.6 184.9,93.5 187.1,92.5 189.3,91.5 191.5,90.5 193.8,89.5 196,88.6 198.3,87.7 200.6,86.8 202.9,85.9 205.2,85.1 
	207.5,84.3 209.8,83.6 212.1,82.8 214.5,82.1 216.8,81.5 219.2,80.8 221.6,80.2 223.9,79.6 226.3,79.1 "/>
<line class="st12" x1="74.5" y1="260.5" x2="37.2" y2="258.8"/>
<line class="st12" x1="226.3" y1="79.1" x2="218.1" y2="42.7"/>
<g>
	<path d="M264.6,26.8l12.9,4.9l0,1.8l-12.9,5.3l0-1.9l3.9-1.5l0-5.4l-3.9-1.4L264.6,26.8z M269.9,30.5l0,4.4l3.6-1.4
		c1.1-0.4,2-0.7,2.7-0.9c-0.8-0.2-1.6-0.4-2.5-0.7L269.9,30.5z"/>
	<path d="M261.1,40l12.9,0l0,1.4l-1.2,0c0.5,0.3,0.8,0.7,1.1,1.1c0.2,0.4,0.4,0.9,0.4,1.6c0,0.8-0.2,1.5-0.6,2.1
		c-0.4,0.6-1,1.1-1.7,1.4c-0.7,0.3-1.6,0.5-2.5,0.5c-1,0-1.8-0.2-2.6-0.5c-0.8-0.3-1.4-0.8-1.8-1.5c-0.4-0.7-0.6-1.3-0.6-2.1
		c0-0.5,0.1-1,0.3-1.4c0.2-0.4,0.5-0.8,0.8-1l-4.5,0L261.1,40z M269.3,41.4c-1.2,0-2.1,0.2-2.7,0.7c-0.6,0.5-0.9,1.1-0.9,1.8
		c0,0.7,0.3,1.3,0.9,1.8c0.6,0.5,1.5,0.7,2.8,0.7c1.2,0,2.1-0.2,2.7-0.7c0.6-0.5,0.9-1.1,0.9-1.8c0-0.7-0.3-1.3-0.9-1.8
		C271.4,41.7,270.5,41.4,269.3,41.4z"/>
	<path d="M261.1,50l12.9,0l0,1.4l-1.2,0c0.5,0.3,0.8,0.7,1.1,1.1c0.2,0.4,0.4,0.9,0.4,1.6c0,0.8-0.2,1.5-0.6,2.1
		c-0.4,0.6-1,1.1-1.7,1.4c-0.7,0.3-1.6,0.5-2.5,0.5c-1,0-1.8-0.2-2.6-0.5c-0.8-0.3-1.4-0.8-1.8-1.5c-0.4-0.7-0.6-1.3-0.6-2.1
		c0-0.5,0.1-1,0.3-1.4c0.2-0.4,0.5-0.8,0.8-1l-4.5,0L261.1,50z M269.3,51.4c-1.2,0-2.1,0.2-2.7,0.7c-0.6,0.5-0.9,1.1-0.9,1.8
		c0,0.7,0.3,1.3,0.9,1.8c0.6,0.5,1.5,0.7,2.8,0.7c1.2,0,2.1-0.2,2.7-0.7c0.6-0.5,0.9-1.1,0.9-1.8c0-0.7-0.3-1.3-0.9-1.8
		C271.4,51.7,270.5,51.4,269.3,51.4z"/>
</g>
<polyline class="st12" points="227,78.9 229.3,78.4 231.7,77.9 234.1,77.5 236.5,77.1 238.9,76.7 241.3,76.3 243.7,76 246.1,75.7 
	248.5,75.4 250.9,75.1 253.3,74.9 255.7,74.7 258.1,74.6 260.5,74.5 262.9,74.4 265.4,74.3 267.8,74.3 270.2,74.3 272.6,74.3 
	275,74.4 277.5,74.4 279.9,74.6 282.3,74.7 284.7,74.9 287.1,75.1 289.5,75.3 291.9,75.6 294.3,75.9 296.7,76.2 299.1,76.6 
	301.5,76.9 303.9,77.4 306.3,77.8 308.7,78.3 311,78.8 "/>
<line class="st12" x1="227" y1="78.9" x2="218.9" y2="42.5"/>
<line class="st12" x1="311" y1="78.8" x2="319" y2="42.3"/>
<g>
	<path d="M398.3,108l-10.2-7.8l2.9-3.8c0.6-0.8,1.2-1.3,1.8-1.6c0.6-0.3,1.2-0.4,1.8-0.4c0.6,0.1,1.2,0.3,1.7,0.6
		c0.4,0.3,0.8,0.8,1,1.3c0.2,0.5,0.2,1.1,0.1,1.8c0.7-0.5,1.3-0.7,2-0.7c0.7,0,1.3,0.2,1.9,0.7c0.5,0.4,0.8,0.8,1.1,1.3
		c0.3,0.5,0.4,1,0.4,1.5c0,0.5-0.1,1-0.3,1.5c-0.2,0.5-0.6,1.1-1.1,1.8L398.3,108z M393.4,102.1l1.7-2.2c0.5-0.6,0.7-1.1,0.9-1.4
		c0.2-0.4,0.2-0.8,0.1-1.2c-0.1-0.4-0.3-0.7-0.7-0.9c-0.3-0.3-0.7-0.4-1.1-0.4c-0.4,0-0.7,0.1-1.1,0.3s-0.8,0.7-1.3,1.4l-1.6,2
		L393.4,102.1z M398.1,105.7l1.9-2.5c0.3-0.4,0.6-0.8,0.7-1c0.2-0.4,0.3-0.7,0.3-1s0-0.6-0.2-1c-0.1-0.3-0.4-0.6-0.7-0.9
		c-0.4-0.3-0.8-0.4-1.2-0.5c-0.4,0-0.8,0.1-1.2,0.4c-0.4,0.3-0.8,0.7-1.3,1.4l-1.8,2.4L398.1,105.7z"/>
	<path d="M402.9,97.3l0.8-1.4c0.6,0.3,1.1,0.4,1.6,0.3c0.5-0.1,1-0.5,1.4-1c0.4-0.6,0.7-1.1,0.6-1.6c0-0.5-0.2-0.8-0.5-1.1
		c-0.3-0.2-0.6-0.3-1-0.1c-0.2,0.1-0.7,0.4-1.4,1c-0.9,0.7-1.6,1.2-2.1,1.5c-0.4,0.2-0.9,0.3-1.3,0.3s-0.8-0.2-1.2-0.5
		c-0.3-0.3-0.6-0.6-0.7-0.9c-0.2-0.4-0.2-0.8-0.2-1.2c0-0.3,0.1-0.7,0.2-1.1c0.2-0.4,0.4-0.8,0.7-1.2c0.4-0.6,0.9-1,1.4-1.3
		c0.5-0.3,1-0.5,1.4-0.5c0.4,0,0.9,0.2,1.5,0.4l-0.8,1.4c-0.4-0.2-0.8-0.3-1.3-0.2c-0.4,0.1-0.8,0.4-1.2,0.9
		c-0.4,0.6-0.7,1.1-0.7,1.5s0.1,0.7,0.4,0.9c0.2,0.1,0.3,0.2,0.6,0.2c0.2,0,0.4-0.1,0.7-0.2c0.1-0.1,0.5-0.4,1.2-0.9
		c0.9-0.7,1.6-1.2,2-1.4c0.4-0.2,0.9-0.3,1.3-0.3c0.4,0,0.9,0.2,1.3,0.5c0.4,0.3,0.7,0.7,0.9,1.3c0.2,0.5,0.2,1.1,0,1.7
		c-0.1,0.6-0.4,1.2-0.9,1.8c-0.7,1-1.5,1.5-2.3,1.7C404.6,97.9,403.8,97.8,402.9,97.3z"/>
	<path d="M411.4,92.1l1.1-1.1c0.4,0.2,0.8,0.3,1.1,0.2c0.5-0.1,0.9-0.5,1.3-1c0.4-0.6,0.7-1.1,0.7-1.6c0-0.5-0.2-1-0.5-1.4
		c-0.2-0.3-0.7-0.7-1.5-1.3c0.2,1,0,2-0.6,2.8c-0.8,1-1.8,1.5-2.9,1.5s-2.3-0.4-3.3-1.2c-0.7-0.5-1.3-1.2-1.7-1.9
		c-0.4-0.7-0.6-1.4-0.5-2.2c0-0.7,0.3-1.4,0.8-2.1c0.7-0.9,1.6-1.3,2.7-1.4l-0.9-0.7l0.9-1.2l6.4,4.9c1.2,0.9,1.9,1.6,2.2,2.2
		c0.3,0.6,0.4,1.3,0.3,2c-0.1,0.7-0.5,1.5-1,2.2c-0.7,0.9-1.4,1.4-2.2,1.7C413,92.9,412.2,92.7,411.4,92.1z M407.7,87.6
		c1,0.7,1.8,1.1,2.6,1s1.3-0.4,1.8-0.9c0.4-0.6,0.6-1.2,0.4-2s-0.7-1.5-1.6-2.2c-0.9-0.7-1.7-1-2.5-1c-0.8,0.1-1.4,0.4-1.8,0.9
		c-0.4,0.6-0.6,1.2-0.4,1.9S406.8,86.9,407.7,87.6z"/>
</g>
<polyline class="st12" points="311.7,78.9 314.1,79.5 316.4,80 318.8,80.6 321.1,81.3 323.4,81.9 325.7,82.6 328.1,83.3 330.4,84.1 
	332.7,84.8 334.9,85.6 337.2,86.5 339.5,87.3 341.7,88.2 344,89.1 346.2,90.1 348.4,91 350.6,92 352.8,93 355,94.1 357.2,95.2 
	359.3,96.3 361.5,97.4 363.6,98.6 365.7,99.7 367.8,100.9 369.9,102.2 372,103.4 374,104.7 376,106 378.1,107.4 380.1,108.7 
	382,110.1 384,111.5 386,113 387.9,114.4 389.8,115.9 391.7,117.4 393.6,119 395.4,120.5 397.3,122.1 399.1,123.7 400.9,125.3 
	402.7,126.9 404.4,128.6 406.2,130.3 407.9,132 409.6,133.7 411.2,135.5 412.9,137.3 414.5,139 416.1,140.9 417.7,142.7 
	419.3,144.5 420.8,146.4 422.3,148.3 423.8,150.2 425.3,152.1 426.7,154.1 428.1,156 429.5,158 430.9,160 432.2,162 433.6,164.1 
	434.8,166.1 436.1,168.2 437.4,170.2 438.6,172.3 439.8,174.4 440.9,176.6 442.1,178.7 "/>
<line class="st12" x1="311.7" y1="78.9" x2="319.8" y2="42.5"/>
<line class="st12" x1="442.1" y1="178.7" x2="475.1" y2="161.4"/>
<g>
	<path d="M477.7,213.1l1.8,0c0,1.4-0.3,2.6-1,3.6c-0.7,1-1.7,1.6-3,1.9c-1.3,0.4-2.5,0.4-3.5,0.1c-1-0.3-1.8-0.9-2.6-1.9
		c-0.7-0.9-1.2-2-1.6-3.2c-0.3-1.3-0.4-2.5-0.2-3.6c0.2-1.1,0.7-2,1.5-2.8c0.8-0.7,1.7-1.3,2.8-1.6c1.2-0.3,2.4-0.3,3.4,0.1
		c1,0.4,1.8,1.1,2.5,2.2l-1.5,0.8c-0.5-0.8-1.1-1.4-1.8-1.6c-0.7-0.3-1.4-0.3-2.2-0.1c-1,0.3-1.7,0.7-2.2,1.3
		c-0.5,0.6-0.8,1.4-0.9,2.2c-0.1,0.8,0,1.7,0.3,2.5c0.3,1.1,0.7,1.9,1.2,2.6s1.2,1.2,1.9,1.4s1.5,0.2,2.3,0c0.9-0.2,1.6-0.7,2.1-1.4
		C477.5,215.1,477.7,214.2,477.7,213.1z"/>
	<path d="M487.9,213.9c-0.4,0.6-0.9,1.1-1.4,1.5c-0.5,0.3-1,0.6-1.6,0.7c-1,0.3-1.8,0.2-2.5-0.1c-0.7-0.3-1.1-0.9-1.3-1.6
		c-0.1-0.4-0.1-0.9,0-1.3c0.1-0.4,0.3-0.8,0.6-1.1c0.3-0.3,0.6-0.6,1-0.8c0.3-0.2,0.7-0.4,1.3-0.6c1.2-0.5,2.1-0.9,2.6-1.3
		c-0.1-0.2-0.1-0.3-0.1-0.4c-0.2-0.6-0.4-1-0.8-1.2c-0.5-0.2-1.1-0.3-1.9-0.1c-0.7,0.2-1.2,0.5-1.5,0.8c-0.3,0.3-0.4,0.9-0.4,1.5
		l-1.5,0.2c0-0.7,0-1.3,0.3-1.7c0.2-0.5,0.6-0.9,1.1-1.3c0.5-0.4,1.2-0.7,2-0.9c0.8-0.2,1.4-0.3,1.9-0.2s0.9,0.2,1.2,0.4
		c0.3,0.2,0.6,0.5,0.8,0.9c0.1,0.2,0.3,0.7,0.5,1.4l0.5,2c0.4,1.4,0.7,2.3,0.8,2.7c0.2,0.4,0.4,0.7,0.7,1l-1.6,0.4
		C488.3,214.6,488.1,214.3,487.9,213.9z M486.9,210.5c-0.5,0.4-1.3,0.8-2.3,1.2c-0.6,0.3-1,0.5-1.3,0.7c-0.2,0.2-0.4,0.4-0.5,0.7
		s-0.1,0.5,0,0.8c0.1,0.4,0.4,0.7,0.7,0.9c0.4,0.2,0.9,0.2,1.5,0c0.6-0.2,1.1-0.4,1.5-0.8c0.4-0.4,0.6-0.8,0.7-1.3
		c0.1-0.4,0-0.9-0.2-1.6L486.9,210.5z"/>
	<path d="M492,214l-3.3-12.4l1.5-0.4l3.3,12.4L492,214z"/>
	<path d="M495.9,212.9l-2.4-9l1.4-0.4l0.3,1.3c0.2-0.5,0.4-1,0.8-1.4c0.4-0.4,0.9-0.7,1.5-0.8c0.7-0.2,1.3-0.2,1.8,0
		c0.5,0.2,0.9,0.5,1.2,0.9c0.4-1.2,1.2-2,2.4-2.3c0.9-0.2,1.6-0.2,2.3,0.2s1.1,1.1,1.3,2.1l1.7,6.2l-1.5,0.4l-1.5-5.7
		c-0.2-0.6-0.3-1-0.5-1.3c-0.2-0.2-0.4-0.4-0.7-0.5c-0.3-0.1-0.6-0.1-1,0c-0.6,0.2-1.1,0.5-1.4,1.1c-0.3,0.5-0.3,1.3-0.1,2.2
		l1.4,5.2l-1.5,0.4l-1.6-5.9c-0.2-0.7-0.4-1.2-0.8-1.4c-0.3-0.3-0.8-0.3-1.4-0.2c-0.4,0.1-0.8,0.3-1.1,0.7c-0.3,0.3-0.5,0.7-0.5,1.2
		s0,1.1,0.3,2l1.3,4.7L495.9,212.9z"/>
	<path d="M517.5,205.5l0.4,1.5l-8.2,2.2c-0.1-0.4-0.1-0.7-0.1-1.1c0.1-0.6,0.2-1.3,0.6-1.9c0.3-0.7,0.8-1.5,1.5-2.4
		c1.1-1.5,1.7-2.6,2-3.4c0.3-0.8,0.4-1.5,0.2-2c-0.2-0.6-0.5-1.1-1.1-1.4c-0.5-0.3-1.2-0.4-1.9-0.2c-0.7,0.2-1.3,0.6-1.6,1.1
		c-0.3,0.6-0.4,1.2-0.2,2l-1.6,0.3c-0.2-1.2,0-2.2,0.5-3c0.5-0.8,1.4-1.4,2.6-1.7c1.2-0.3,2.2-0.2,3.1,0.2c0.9,0.5,1.4,1.2,1.7,2.2
		c0.1,0.5,0.2,1,0.1,1.5c-0.1,0.5-0.3,1.1-0.6,1.8c-0.3,0.7-0.9,1.6-1.8,2.8c-0.7,1-1.2,1.7-1.3,2c-0.2,0.3-0.3,0.7-0.4,1
		L517.5,205.5z"/>
</g>
<polyline class="st12" points="442.4,179.3 443.5,181.5 444.6,183.6 445.6,185.8 446.6,188 447.6,190.2 448.6,192.4 449.5,194.7 
	450.5,196.9 451.3,199.2 452.2,201.4 453,203.7 453.8,206 454.6,208.3 455.3,210.6 456.1,212.9 456.7,215.2 457.4,217.5 458,219.9 
	458.6,222.2 459.2,224.6 459.7,226.9 460.2,229.3 460.7,231.7 461.2,234.1 461.6,236.4 462,238.8 462.4,241.2 462.7,243.6 463,246 
	463.3,248.4 463.5,250.8 463.7,253.2 463.9,255.7 464.1,258.1 464.2,260.5 "/>
<line class="st12" x1="442.4" y1="179.3" x2="475.5" y2="162.1"/>
<line class="st12" x1="464.2" y1="260.5" x2="501.5" y2="258.8"/>
<linearGradient id="SVGID_1_" gradientUnits="userSpaceOnUse" x1="44.8414" y1="83.7454" x2="44.8414" y2="34.9624">
	<stop  offset="0" style="stop-color:#ADD9E5"/>
	<stop  offset="1" style="stop-color:#FF00FE"/>
</linearGradient>
<rect x="32.3" y="35" class="st13" width="25.1" height="48.8"/>
<g>
	<path class="st14" d="M28.1,26l1.1-0.1c0.1,0.4,0.2,0.8,0.4,1.1s0.5,0.5,0.9,0.7s0.8,0.3,1.3,0.3c0.4,0,0.8-0.1,1.1-0.2
		s0.6-0.3,0.7-0.5s0.2-0.5,0.2-0.7c0-0.3-0.1-0.5-0.2-0.7s-0.4-0.4-0.8-0.5c-0.2-0.1-0.7-0.2-1.5-0.4c-0.8-0.2-1.3-0.4-1.7-0.5
		c-0.4-0.2-0.7-0.5-0.9-0.8s-0.3-0.7-0.3-1.1c0-0.4,0.1-0.8,0.4-1.2s0.6-0.7,1.1-0.9s1-0.3,1.6-0.3c0.6,0,1.2,0.1,1.7,0.3
		s0.9,0.5,1.1,0.9s0.4,0.8,0.4,1.4l-1.1,0.1c-0.1-0.5-0.3-1-0.6-1.2S32.2,21,31.5,21c-0.7,0-1.2,0.1-1.5,0.4s-0.5,0.6-0.5,0.9
		c0,0.3,0.1,0.6,0.3,0.8c0.2,0.2,0.8,0.4,1.7,0.6c0.9,0.2,1.6,0.4,1.9,0.5c0.5,0.2,0.9,0.5,1.1,0.9s0.4,0.8,0.4,1.2
		c0,0.5-0.1,0.9-0.4,1.3s-0.6,0.7-1.1,0.9s-1,0.3-1.7,0.3c-0.8,0-1.4-0.1-2-0.3s-0.9-0.6-1.2-1S28.1,26.5,28.1,26z"/>
	<path class="st14" d="M40.4,26.4l1,0.1c-0.1,0.7-0.4,1.3-0.9,1.7s-1,0.6-1.7,0.6c-0.9,0-1.5-0.3-2.1-0.8S36,26.7,36,25.6
		c0-0.7,0.1-1.3,0.3-1.8s0.6-0.9,1-1.1s1-0.4,1.5-0.4c0.7,0,1.2,0.2,1.7,0.5s0.7,0.8,0.8,1.5l-1,0.2c-0.1-0.4-0.3-0.7-0.5-0.9
		s-0.5-0.3-0.9-0.3c-0.5,0-1,0.2-1.3,0.6s-0.5,1-0.5,1.8c0,0.8,0.2,1.4,0.5,1.8s0.7,0.6,1.3,0.6c0.4,0,0.8-0.1,1-0.4
		S40.4,27,40.4,26.4z"/>
	<path class="st14" d="M42,25.6c0-1.2,0.3-2,1-2.6c0.5-0.5,1.2-0.7,2-0.7c0.9,0,1.6,0.3,2.1,0.8s0.8,1.3,0.8,2.3
		c0,0.8-0.1,1.4-0.4,1.9s-0.6,0.8-1,1.1s-1,0.4-1.5,0.4c-0.9,0-1.6-0.3-2.1-0.8S42,26.7,42,25.6z M43.1,25.6c0,0.8,0.2,1.4,0.5,1.8
		s0.8,0.6,1.3,0.6c0.5,0,1-0.2,1.3-0.6s0.5-1,0.5-1.8c0-0.8-0.2-1.4-0.5-1.7s-0.8-0.6-1.3-0.6c-0.5,0-1,0.2-1.3,0.6
		S43.1,24.8,43.1,25.6z"/>
	<path class="st14" d="M49,28.7v-6.2H50v0.9c0.2-0.4,0.5-0.7,0.7-0.9s0.4-0.2,0.7-0.2c0.4,0,0.7,0.1,1.1,0.3l-0.4,1
		c-0.3-0.2-0.5-0.2-0.8-0.2c-0.2,0-0.4,0.1-0.6,0.2s-0.3,0.3-0.4,0.6c-0.1,0.4-0.2,0.8-0.2,1.2v3.3H49z"/>
	<path class="st14" d="M57.3,26.7l1.1,0.1c-0.2,0.6-0.5,1.1-1,1.5s-1.1,0.5-1.8,0.5c-0.9,0-1.6-0.3-2.2-0.8s-0.8-1.3-0.8-2.4
		c0-1,0.3-1.9,0.8-2.4s1.2-0.9,2.1-0.9c0.8,0,1.5,0.3,2,0.8s0.8,1.4,0.8,2.4c0,0.1,0,0.2,0,0.3h-4.6c0,0.7,0.2,1.2,0.6,1.6
		s0.8,0.5,1.3,0.5c0.4,0,0.7-0.1,1-0.3S57.1,27.2,57.3,26.7z M53.8,25h3.5c0-0.5-0.2-0.9-0.4-1.2c-0.3-0.4-0.8-0.6-1.3-0.6
		c-0.5,0-0.9,0.2-1.2,0.5S53.9,24.5,53.8,25z"/>
</g>
<g>
	<path class="st15" d="M39.7,39.6c0-0.8,0.1-1.5,0.3-2s0.4-0.9,0.8-1.2S41.5,36,42,36c0.4,0,0.7,0.1,1,0.2s0.5,0.4,0.7,0.7
		s0.3,0.6,0.4,1.1s0.2,1,0.2,1.7c0,0.8-0.1,1.5-0.3,2s-0.4,0.9-0.8,1.2s-0.8,0.4-1.3,0.4c-0.7,0-1.2-0.2-1.6-0.7
		C39.9,41.9,39.7,41,39.7,39.6z M40.6,39.6c0,1.2,0.1,2,0.4,2.3s0.6,0.6,1,0.6s0.7-0.2,1-0.6s0.4-1.2,0.4-2.3c0-1.2-0.1-2-0.4-2.3
		s-0.6-0.6-1-0.6c-0.4,0-0.7,0.2-1,0.5C40.7,37.6,40.6,38.4,40.6,39.6z"/>
	<path class="st15" d="M45.7,43.1v-1h1v1H45.7z"/>
	<path class="st15" d="M49.3,39.3c-0.4-0.1-0.6-0.3-0.8-0.6s-0.3-0.5-0.3-0.9c0-0.5,0.2-1,0.6-1.3s0.9-0.5,1.5-0.5
		c0.6,0,1.1,0.2,1.5,0.5s0.6,0.8,0.6,1.3c0,0.3-0.1,0.6-0.3,0.9s-0.4,0.4-0.8,0.6c0.4,0.1,0.8,0.4,1,0.7s0.3,0.7,0.3,1.1
		c0,0.6-0.2,1.1-0.6,1.5s-1,0.6-1.7,0.6s-1.3-0.2-1.7-0.6S48,41.7,48,41.1c0-0.5,0.1-0.9,0.4-1.2S48.9,39.4,49.3,39.3z M48.9,41.1
		c0,0.3,0.1,0.5,0.2,0.7s0.3,0.4,0.5,0.5s0.5,0.2,0.8,0.2c0.4,0,0.8-0.1,1-0.4s0.4-0.6,0.4-1c0-0.4-0.1-0.8-0.4-1s-0.6-0.4-1.1-0.4
		c-0.4,0-0.8,0.1-1,0.4S48.9,40.7,48.9,41.1z M49.2,37.8c0,0.3,0.1,0.6,0.3,0.8s0.5,0.3,0.8,0.3c0.3,0,0.6-0.1,0.8-0.3
		s0.3-0.5,0.3-0.8c0-0.3-0.1-0.6-0.3-0.8s-0.5-0.3-0.8-0.3c-0.3,0-0.6,0.1-0.8,0.3S49.2,37.5,49.2,37.8z"/>
</g>
<g>
	<path class="st15" d="M36.1,79.2c0-0.8,0.1-1.5,0.3-2s0.4-0.9,0.8-1.2s0.8-0.4,1.3-0.4c0.4,0,0.7,0.1,1,0.2s0.5,0.4,0.7,0.7
		s0.3,0.6,0.4,1.1s0.2,1,0.2,1.7c0,0.8-0.1,1.5-0.3,2s-0.4,0.9-0.8,1.2s-0.8,0.4-1.3,0.4c-0.7,0-1.2-0.2-1.6-0.7
		C36.4,81.5,36.1,80.5,36.1,79.2z M37,79.2c0,1.2,0.1,2,0.4,2.3s0.6,0.6,1,0.6s0.7-0.2,1-0.6s0.4-1.2,0.4-2.3c0-1.2-0.1-2-0.4-2.3
		s-0.6-0.6-1-0.6c-0.4,0-0.7,0.2-1,0.5C37.2,77.2,37,78,37,79.2z"/>
	<path class="st15" d="M42.2,82.7v-1h1v1H42.2z"/>
	<path class="st15" d="M44.5,80.8l0.9-0.1c0.1,0.4,0.2,0.8,0.5,1s0.5,0.3,0.9,0.3c0.4,0,0.8-0.2,1.1-0.5s0.4-0.7,0.4-1.3
		c0-0.5-0.1-0.9-0.4-1.2s-0.7-0.4-1.1-0.4c-0.3,0-0.5,0.1-0.8,0.2s-0.4,0.3-0.5,0.5l-0.8-0.1l0.7-3.7h3.6v0.8H46l-0.4,1.9
		c0.4-0.3,0.9-0.4,1.4-0.4c0.6,0,1.2,0.2,1.6,0.6s0.6,1,0.6,1.7c0,0.6-0.2,1.2-0.6,1.7c-0.5,0.6-1.1,0.9-1.9,0.9
		c-0.7,0-1.2-0.2-1.6-0.5S44.5,81.4,44.5,80.8z"/>
	<path class="st15" d="M50,80.8l0.9-0.1c0.1,0.4,0.2,0.8,0.5,1s0.5,0.3,0.9,0.3c0.4,0,0.8-0.2,1.1-0.5s0.4-0.7,0.4-1.3
		c0-0.5-0.1-0.9-0.4-1.2s-0.7-0.4-1.1-0.4c-0.3,0-0.5,0.1-0.8,0.2s-0.4,0.3-0.5,0.5l-0.8-0.1l0.7-3.7h3.6v0.8h-2.9l-0.4,1.9
		c0.4-0.3,0.9-0.4,1.4-0.4c0.6,0,1.2,0.2,1.6,0.6s0.6,1,0.6,1.7c0,0.6-0.2,1.2-0.6,1.7c-0.5,0.6-1.1,0.9-1.9,0.9
		c-0.7,0-1.2-0.2-1.6-0.5S50.1,81.4,50,80.8z"/>
</g>
</svg>
